<svg width="26" height="24" viewBox="0 0 26 24" fill="none" xmlns="http://www.w3.org/2000/svg">
<path d="M21.2231 20.0925C20.1998 19.7475 18.7323 19.6275 17.7962 19.4325C17.2568 19.32 16.4714 19.035 16.2097 18.7425C15.9479 18.4425 16.1065 15.675 16.1065 15.675C16.1065 15.675 16.5904 14.955 16.8522 14.325C17.114 13.695 17.3996 11.97 17.3996 11.97C17.3996 11.97 17.939 11.97 18.1294 11.0775C18.3356 10.1025 18.6529 9.6975 18.6133 8.97C18.5736 8.295 18.2008 8.2575 18.1611 8.2575C18.1611 8.2575 18.5498 7.2375 18.6053 5.0775C18.6688 2.52 16.5984 0 12.7114 0C8.82433 0 6.76183 2.5125 6.81736 5.07C6.86496 7.2225 7.26159 8.25 7.26159 8.25C7.22193 8.25 6.84909 8.2875 6.80943 8.9625C6.76976 9.69 7.095 10.08 7.29332 11.055C7.48371 11.9475 8.02313 11.955 8.02313 11.955C8.02313 11.955 8.30871 13.6875 8.57049 14.3175C8.83226 14.955 9.31616 15.6675 9.31616 15.6675C9.31616 15.6675 9.47481 18.435 9.21303 18.735C8.95125 19.035 8.16592 19.3125 7.62649 19.425C6.6825 19.62 5.22289 19.7475 4.19957 20.0925C3.17625 20.4375 0.019043 21.6 0.019043 24H12.7114H25.4037C25.4037 21.6 22.2464 20.4375 21.2231 20.0925Z" fill="#C98848"/>
</svg>
