<svg width="26" height="24" viewBox="0 0 26 24" fill="none" xmlns="http://www.w3.org/2000/svg">
<path d="M21.2036 20.0925C20.1803 19.7475 18.7127 19.6275 17.7767 19.4325C17.2373 19.32 16.4519 19.035 16.1901 18.7425C15.9284 18.4425 16.087 15.675 16.087 15.675C16.087 15.675 16.5709 14.955 16.8327 14.325C17.0945 13.695 17.38 11.97 17.38 11.97C17.38 11.97 17.9195 11.97 18.1098 11.0775C18.3161 10.1025 18.6334 9.6975 18.5937 8.97C18.5541 8.295 18.1812 8.2575 18.1416 8.2575C18.1416 8.2575 18.5303 7.2375 18.5858 5.0775C18.6493 2.52 16.5788 0 12.6918 0C8.8048 0 6.7423 2.5125 6.79783 5.07C6.84543 7.2225 7.24206 8.25 7.24206 8.25C7.2024 8.25 6.82956 8.2875 6.7899 8.9625C6.75023 9.69 7.07547 10.08 7.27379 11.055C7.46418 11.9475 8.0036 11.955 8.0036 11.955C8.0036 11.955 8.28918 13.6875 8.55095 14.3175C8.81273 14.955 9.29663 15.6675 9.29663 15.6675C9.29663 15.6675 9.45528 18.435 9.1935 18.735C8.93172 19.035 8.14639 19.3125 7.60696 19.425C6.66297 19.62 5.20336 19.7475 4.18004 20.0925C3.15672 20.4375 -0.000488281 21.6 -0.000488281 24H12.6918H25.3841C25.3841 21.6 22.2269 20.4375 21.2036 20.0925Z" fill="#949494"/>
</svg>
