<svg width="369" height="15" viewBox="0 0 369 15" fill="none" xmlns="http://www.w3.org/2000/svg">
<rect y="9" width="132" height="3" fill="url(#paint0_linear_8_464)"/>
<rect x="369" y="12" width="132" height="3" transform="rotate(-180 369 12)" fill="url(#paint1_linear_8_464)"/>
<path d="M143.752 12.12C143.152 12.12 142.596 12.012 142.084 11.796C141.572 11.58 141.124 11.28 140.74 10.896C140.364 10.504 140.072 10.044 139.864 9.516C139.656 8.988 139.552 8.412 139.552 7.788C139.552 7.164 139.656 6.588 139.864 6.06C140.072 5.532 140.364 5.076 140.74 4.692C141.124 4.3 141.572 3.996 142.084 3.78C142.596 3.564 143.152 3.456 143.752 3.456C144.36 3.456 144.92 3.564 145.432 3.78C145.944 3.996 146.388 4.3 146.764 4.692C147.14 5.084 147.432 5.544 147.64 6.072C147.848 6.592 147.952 7.164 147.952 7.788C147.952 8.404 147.848 8.976 147.64 9.504C147.432 10.032 147.14 10.492 146.764 10.884C146.388 11.276 145.944 11.58 145.432 11.796C144.92 12.012 144.36 12.12 143.752 12.12ZM143.752 10.632C144.136 10.632 144.484 10.564 144.796 10.428C145.116 10.284 145.392 10.084 145.624 9.828C145.856 9.564 146.036 9.26 146.164 8.916C146.3 8.572 146.368 8.196 146.368 7.788C146.368 7.38 146.3 7.004 146.164 6.66C146.036 6.316 145.856 6.016 145.624 5.76C145.392 5.496 145.116 5.296 144.796 5.16C144.484 5.016 144.136 4.944 143.752 4.944C143.376 4.944 143.028 5.016 142.708 5.16C142.388 5.296 142.112 5.492 141.88 5.748C141.648 6.004 141.468 6.304 141.34 6.648C141.212 6.992 141.148 7.372 141.148 7.788C141.148 8.196 141.212 8.576 141.34 8.928C141.468 9.272 141.648 9.572 141.88 9.828C142.112 10.084 142.388 10.284 142.708 10.428C143.028 10.564 143.376 10.632 143.752 10.632ZM149.38 12V5.676H150.832L150.856 7.692L150.652 7.236C150.74 6.916 150.892 6.628 151.108 6.372C151.324 6.116 151.572 5.916 151.852 5.772C152.14 5.62 152.44 5.544 152.752 5.544C152.888 5.544 153.016 5.556 153.136 5.58C153.264 5.604 153.368 5.632 153.448 5.664L153.052 7.284C152.964 7.236 152.856 7.196 152.728 7.164C152.6 7.132 152.472 7.116 152.344 7.116C152.144 7.116 151.952 7.156 151.768 7.236C151.592 7.308 151.436 7.412 151.3 7.548C151.164 7.684 151.056 7.844 150.976 8.028C150.904 8.204 150.868 8.404 150.868 8.628V12H149.38ZM160.886 12.12C160.398 12.12 159.95 12.06 159.542 11.94C159.134 11.812 158.766 11.624 158.438 11.376C158.11 11.128 157.818 10.828 157.562 10.476L158.582 9.324C158.974 9.868 159.358 10.244 159.734 10.452C160.11 10.66 160.534 10.764 161.006 10.764C161.278 10.764 161.526 10.724 161.75 10.644C161.974 10.556 162.15 10.44 162.278 10.296C162.406 10.144 162.47 9.972 162.47 9.78C162.47 9.644 162.442 9.52 162.386 9.408C162.338 9.288 162.262 9.184 162.158 9.096C162.054 9 161.926 8.912 161.774 8.832C161.622 8.752 161.45 8.684 161.258 8.628C161.066 8.572 160.854 8.52 160.622 8.472C160.182 8.384 159.798 8.268 159.47 8.124C159.142 7.972 158.866 7.788 158.642 7.572C158.418 7.348 158.254 7.1 158.15 6.828C158.046 6.548 157.994 6.232 157.994 5.88C157.994 5.528 158.07 5.204 158.222 4.908C158.382 4.612 158.598 4.356 158.87 4.14C159.142 3.924 159.458 3.756 159.818 3.636C160.178 3.516 160.566 3.456 160.982 3.456C161.454 3.456 161.874 3.512 162.242 3.624C162.618 3.736 162.946 3.904 163.226 4.128C163.514 4.344 163.75 4.608 163.934 4.92L162.902 5.94C162.742 5.692 162.562 5.488 162.362 5.328C162.162 5.16 161.946 5.036 161.714 4.956C161.482 4.868 161.238 4.824 160.982 4.824C160.694 4.824 160.442 4.864 160.226 4.944C160.018 5.024 159.854 5.14 159.734 5.292C159.614 5.436 159.554 5.612 159.554 5.82C159.554 5.98 159.59 6.124 159.662 6.252C159.734 6.372 159.834 6.48 159.962 6.576C160.098 6.672 160.27 6.756 160.478 6.828C160.686 6.9 160.922 6.964 161.186 7.02C161.626 7.108 162.022 7.228 162.374 7.38C162.726 7.524 163.026 7.7 163.274 7.908C163.522 8.108 163.71 8.34 163.838 8.604C163.966 8.86 164.03 9.148 164.03 9.468C164.03 10.02 163.898 10.496 163.634 10.896C163.378 11.288 163.014 11.592 162.542 11.808C162.07 12.016 161.518 12.12 160.886 12.12ZM165.649 12V5.676H167.125V12H165.649ZM166.369 4.332C166.073 4.332 165.841 4.26 165.673 4.116C165.513 3.964 165.433 3.752 165.433 3.48C165.433 3.224 165.517 3.016 165.685 2.856C165.853 2.696 166.081 2.616 166.369 2.616C166.673 2.616 166.905 2.692 167.065 2.844C167.233 2.988 167.317 3.2 167.317 3.48C167.317 3.728 167.233 3.932 167.065 4.092C166.897 4.252 166.665 4.332 166.369 4.332ZM171.841 14.76C171.369 14.76 170.897 14.688 170.425 14.544C169.961 14.4 169.585 14.212 169.297 13.98L169.825 12.888C169.993 13.008 170.181 13.112 170.389 13.2C170.597 13.288 170.817 13.356 171.049 13.404C171.289 13.452 171.525 13.476 171.757 13.476C172.181 13.476 172.533 13.408 172.813 13.272C173.101 13.144 173.317 12.944 173.461 12.672C173.605 12.408 173.677 12.076 173.677 11.676V10.512L173.893 10.596C173.845 10.844 173.713 11.08 173.497 11.304C173.281 11.528 173.009 11.712 172.681 11.856C172.353 11.992 172.017 12.06 171.673 12.06C171.073 12.06 170.541 11.92 170.077 11.64C169.621 11.36 169.257 10.98 168.985 10.5C168.721 10.012 168.589 9.452 168.589 8.82C168.589 8.188 168.721 7.628 168.985 7.14C169.249 6.644 169.609 6.256 170.065 5.976C170.529 5.688 171.049 5.544 171.625 5.544C171.865 5.544 172.097 5.572 172.321 5.628C172.545 5.684 172.749 5.764 172.933 5.868C173.125 5.972 173.297 6.088 173.449 6.216C173.601 6.344 173.725 6.48 173.821 6.624C173.917 6.768 173.977 6.908 174.001 7.044L173.689 7.14L173.713 5.676H175.165V11.568C175.165 12.08 175.089 12.532 174.937 12.924C174.785 13.316 174.565 13.648 174.277 13.92C173.989 14.2 173.641 14.408 173.233 14.544C172.825 14.688 172.361 14.76 171.841 14.76ZM171.901 10.8C172.261 10.8 172.577 10.716 172.849 10.548C173.129 10.38 173.345 10.148 173.497 9.852C173.649 9.556 173.725 9.216 173.725 8.832C173.725 8.44 173.645 8.096 173.485 7.8C173.333 7.496 173.121 7.26 172.849 7.092C172.577 6.924 172.261 6.84 171.901 6.84C171.541 6.84 171.225 6.928 170.953 7.104C170.681 7.272 170.465 7.508 170.305 7.812C170.153 8.108 170.077 8.448 170.077 8.832C170.077 9.208 170.153 9.548 170.305 9.852C170.465 10.148 170.681 10.38 170.953 10.548C171.225 10.716 171.541 10.8 171.901 10.8ZM176.872 12V5.676H178.312L178.336 6.972L178.06 7.116C178.14 6.828 178.296 6.568 178.528 6.336C178.76 6.096 179.036 5.904 179.356 5.76C179.676 5.616 180.004 5.544 180.34 5.544C180.82 5.544 181.22 5.64 181.54 5.832C181.868 6.024 182.112 6.312 182.272 6.696C182.44 7.08 182.524 7.56 182.524 8.136V12H181.048V8.244C181.048 7.924 181.004 7.66 180.916 7.452C180.828 7.236 180.692 7.08 180.508 6.984C180.324 6.88 180.1 6.832 179.836 6.84C179.62 6.84 179.42 6.876 179.236 6.948C179.06 7.012 178.904 7.108 178.768 7.236C178.64 7.356 178.536 7.496 178.456 7.656C178.384 7.816 178.348 7.992 178.348 8.184V12H177.616C177.472 12 177.336 12 177.208 12C177.088 12 176.976 12 176.872 12ZM187.88 12V5.676H189.356V12H187.88ZM188.6 4.332C188.304 4.332 188.072 4.26 187.904 4.116C187.744 3.964 187.664 3.752 187.664 3.48C187.664 3.224 187.748 3.016 187.916 2.856C188.084 2.696 188.312 2.616 188.6 2.616C188.904 2.616 189.136 2.692 189.296 2.844C189.464 2.988 189.548 3.2 189.548 3.48C189.548 3.728 189.464 3.932 189.296 4.092C189.128 4.252 188.896 4.332 188.6 4.332ZM191.227 12V5.676H192.667L192.691 6.972L192.415 7.116C192.495 6.828 192.651 6.568 192.883 6.336C193.115 6.096 193.391 5.904 193.711 5.76C194.031 5.616 194.359 5.544 194.695 5.544C195.175 5.544 195.575 5.64 195.895 5.832C196.223 6.024 196.467 6.312 196.627 6.696C196.795 7.08 196.879 7.56 196.879 8.136V12H195.403V8.244C195.403 7.924 195.359 7.66 195.271 7.452C195.183 7.236 195.047 7.08 194.863 6.984C194.679 6.88 194.455 6.832 194.191 6.84C193.975 6.84 193.775 6.876 193.591 6.948C193.415 7.012 193.259 7.108 193.123 7.236C192.995 7.356 192.891 7.496 192.811 7.656C192.739 7.816 192.703 7.992 192.703 8.184V12H191.971C191.827 12 191.691 12 191.563 12C191.443 12 191.331 12 191.227 12ZM204.023 12L201.407 3.6H203.039L204.527 8.556C204.575 8.708 204.619 8.876 204.659 9.06C204.699 9.244 204.735 9.428 204.767 9.612C204.799 9.788 204.827 9.952 204.851 10.104C204.875 10.256 204.899 10.384 204.923 10.488L204.599 10.476C204.695 10.1 204.771 9.796 204.827 9.564C204.883 9.332 204.931 9.14 204.971 8.988C205.019 8.828 205.067 8.68 205.115 8.544L206.531 4.92H207.863L209.243 8.544C209.323 8.768 209.395 8.984 209.459 9.192C209.523 9.392 209.575 9.592 209.615 9.792C209.663 9.984 209.707 10.184 209.747 10.392L209.459 10.452C209.491 10.26 209.515 10.104 209.531 9.984C209.547 9.864 209.563 9.756 209.579 9.66C209.595 9.564 209.611 9.472 209.627 9.384C209.643 9.288 209.667 9.176 209.699 9.048C209.739 8.912 209.787 8.74 209.843 8.532L211.319 3.6H212.939L210.311 12H209.183L207.047 6.888L207.191 6.936L205.163 12H204.023ZM214.177 12V5.676H215.653V12H214.177ZM214.897 4.332C214.601 4.332 214.369 4.26 214.201 4.116C214.041 3.964 213.961 3.752 213.961 3.48C213.961 3.224 214.045 3.016 214.213 2.856C214.381 2.696 214.609 2.616 214.897 2.616C215.201 2.616 215.433 2.692 215.593 2.844C215.761 2.988 215.845 3.2 215.845 3.48C215.845 3.728 215.761 3.932 215.593 4.092C215.425 4.252 215.193 4.332 214.897 4.332ZM218.208 12V4.068H219.684V12H218.208ZM216.96 7.044V5.676H221.064V7.044H216.96ZM222.188 12V3.12H223.652V6.972L223.376 7.116C223.456 6.828 223.612 6.568 223.844 6.336C224.076 6.096 224.352 5.904 224.672 5.76C224.992 5.616 225.32 5.544 225.656 5.544C226.136 5.544 226.536 5.64 226.856 5.832C227.184 6.024 227.428 6.312 227.588 6.696C227.756 7.08 227.84 7.56 227.84 8.136V12H226.364V8.244C226.364 7.924 226.32 7.66 226.232 7.452C226.144 7.236 226.008 7.08 225.824 6.984C225.64 6.88 225.416 6.832 225.152 6.84C224.936 6.84 224.736 6.876 224.552 6.948C224.376 7.012 224.22 7.108 224.084 7.236C223.956 7.356 223.852 7.496 223.772 7.656C223.7 7.816 223.664 7.992 223.664 8.184V12H222.932C222.788 12 222.652 12 222.524 12C222.404 12 222.292 12 222.188 12Z" fill="white"/>
<defs>
<linearGradient id="paint0_linear_8_464" x1="126.5" y1="9.99993" x2="30" y2="11.9999" gradientUnits="userSpaceOnUse">
<stop stop-color="white"/>
<stop offset="1" stop-color="#C4C4C4" stop-opacity="0"/>
</linearGradient>
<linearGradient id="paint1_linear_8_464" x1="495.5" y1="12.9999" x2="399" y2="14.9999" gradientUnits="userSpaceOnUse">
<stop stop-color="white"/>
<stop offset="1" stop-color="#C4C4C4" stop-opacity="0"/>
</linearGradient>
</defs>
</svg>
