<svg width="26" height="24" viewBox="0 0 26 24" fill="none" xmlns="http://www.w3.org/2000/svg">
<path fill-rule="evenodd" clip-rule="evenodd" d="M18.4453 6.38192C18.1778 3.91976 16.0018 2.00004 13.3571 2.00004C11.9998 1.99458 10.693 2.50773 9.72888 3.42606C8.89202 4.2232 8.37323 5.26864 8.25087 6.38192H8.24996C6.39697 6.38192 4.84015 7.68308 4.40278 9.94232L3.61132 15.8123C2.93762 20.1105 5.04016 22 9.15503 22H17.5777C21.383 22 23.6575 19.8703 23.1905 16.0482L22.3734 9.98167C21.8496 7.69432 20.3328 6.38192 18.5198 6.38192H18.4453ZM16.9201 6.38192C16.6616 4.7215 15.1646 3.44777 13.354 3.44777C12.3959 3.44391 11.4757 3.80526 10.7968 4.45192C10.2456 4.97695 9.89036 5.65494 9.77623 6.38192H16.9201ZM8.24996 7.82965H18.5198C19.583 7.82965 20.5172 8.63792 20.8839 10.2299L21.6573 15.9973C22.1176 19.0657 20.5854 20.5522 17.5777 20.5522H9.15503C5.8982 20.5522 4.58385 19.3711 5.11021 16.0121L5.89739 10.1666C6.19818 8.61886 7.14245 7.82965 8.24996 7.82965ZM16.3494 10.5164C16.7674 10.5164 17.1062 10.8405 17.1062 11.2403C17.1062 11.6067 16.8215 11.9096 16.4521 11.9575L16.3494 11.9641H16.3033C15.8853 11.9641 15.5465 11.64 15.5465 11.2403C15.5465 10.8738 15.8312 10.5709 16.2006 10.523L16.3033 10.5164H16.3494ZM11.2232 11.2403C11.2232 10.8405 10.8844 10.5164 10.4665 10.5164H10.4203L10.3176 10.523C9.94824 10.5709 9.66356 10.8738 9.66356 11.2403C9.66356 11.64 10.0024 11.9641 10.4203 11.9641H10.4665L10.5691 11.9575C10.9385 11.9096 11.2232 11.6067 11.2232 11.2403Z" fill="#C98848"/>
<path d="M13.3571 2.00004L13.3551 2.50004H13.3571V2.00004ZM18.4453 6.38192L17.9483 6.43593L17.9967 6.88192H18.4453V6.38192ZM9.72888 3.42606L10.0737 3.7881V3.7881L9.72888 3.42606ZM8.25087 6.38192V6.88192H8.69893L8.74788 6.43655L8.25087 6.38192ZM4.40278 9.94232L3.9119 9.84729L3.90918 9.86133L3.90727 9.87551L4.40278 9.94232ZM3.61132 15.8123L4.1054 15.8898L4.10683 15.8792L3.61132 15.8123ZM23.1905 16.0482L23.6868 15.9876L23.686 15.9815L23.1905 16.0482ZM22.3734 9.98167L22.8689 9.91493L22.8659 9.8923L22.8608 9.87005L22.3734 9.98167ZM13.354 3.44777L13.352 3.94777H13.354L13.354 3.44777ZM16.9201 6.38192V6.88192H17.5039L17.4141 6.30501L16.9201 6.38192ZM10.7968 4.45192L10.4519 4.08988V4.08988L10.7968 4.45192ZM9.77623 6.38192L9.28228 6.30437L9.1916 6.88192H9.77623V6.38192ZM20.8839 10.2299L21.3794 10.1634L21.3763 10.1403L21.3711 10.1177L20.8839 10.2299ZM21.6573 15.9973L21.1617 16.0637L21.1629 16.0714L21.6573 15.9973ZM5.11021 16.0121L5.6043 16.0895L5.60574 16.0788L5.11021 16.0121ZM5.89739 10.1666L5.40657 10.0712L5.4038 10.0855L5.40186 10.0999L5.89739 10.1666ZM16.4521 11.9575L16.4842 12.4565L16.5004 12.4554L16.5165 12.4534L16.4521 11.9575ZM16.3494 11.9641V12.4641H16.3655L16.3815 12.4631L16.3494 11.9641ZM16.2006 10.523L16.1685 10.024L16.1523 10.0251L16.1362 10.0272L16.2006 10.523ZM16.3033 10.5164V10.0164H16.2872L16.2711 10.0174L16.3033 10.5164ZM10.4203 10.5164V10.0164H10.4042L10.3882 10.0174L10.4203 10.5164ZM10.3176 10.523L10.2855 10.024L10.2693 10.0251L10.2533 10.0272L10.3176 10.523ZM10.4665 11.9641V12.4641H10.4825L10.4986 12.4631L10.4665 11.9641ZM10.5691 11.9575L10.6013 12.4565L10.6174 12.4554L10.6335 12.4534L10.5691 11.9575ZM13.3571 2.50004C15.7617 2.50004 17.7099 4.24227 17.9483 6.43593L18.9424 6.32791C18.6457 3.59725 16.242 1.50004 13.3571 1.50004V2.50004ZM10.0737 3.7881C10.9422 2.96085 12.1239 2.49508 13.3551 2.50004L13.3592 1.50005C11.8757 1.49408 10.4437 2.05461 9.38403 3.06402L10.0737 3.7881ZM8.74788 6.43655C8.8571 5.44279 9.32056 4.50554 10.0737 3.7881L9.38403 3.06402C8.46349 3.94087 7.88936 5.0945 7.75387 6.3273L8.74788 6.43655ZM8.24996 6.88192H8.25087V5.88192H8.24996V6.88192ZM4.89367 10.0374C5.29273 7.97598 6.67251 6.88192 8.24996 6.88192V5.88192C6.12143 5.88192 4.38757 7.39018 3.9119 9.84729L4.89367 10.0374ZM4.10683 15.8792L4.8983 10.0091L3.90727 9.87551L3.1158 15.7455L4.10683 15.8792ZM9.15503 21.5C7.1564 21.5 5.76889 21.0387 4.95056 20.1742C4.14348 19.3217 3.78099 17.9588 4.10529 15.8898L3.11735 15.7349C2.76795 17.9641 3.11988 19.695 4.22436 20.8617C5.31759 22.0165 7.03879 22.5 9.15503 22.5V21.5ZM17.5777 21.5H9.15503V22.5H17.5777V21.5ZM22.6942 16.1089C22.9142 17.9096 22.4829 19.2325 21.6284 20.1081C20.7656 20.9921 19.3939 21.5 17.5777 21.5V22.5C19.5669 22.5 21.235 21.9429 22.344 20.8066C23.4613 19.6618 23.9338 18.0089 23.6868 15.9876L22.6942 16.1089ZM21.8779 10.0484L22.6949 16.115L23.686 15.9815L22.8689 9.91493L21.8779 10.0484ZM18.5198 6.88192C20.0442 6.88192 21.4007 7.9743 21.886 10.0933L22.8608 9.87005C22.2984 7.41435 20.6214 5.88192 18.5198 5.88192V6.88192ZM18.4453 6.88192H18.5198V5.88192H18.4453V6.88192ZM13.354 3.94777C14.9312 3.94777 16.2074 5.05463 16.426 6.45883L17.4141 6.30501C17.1157 4.38838 15.398 2.94777 13.354 2.94777L13.354 3.94777ZM11.1417 4.81396C11.7248 4.25849 12.5198 3.94442 13.352 3.94776L13.356 2.94777C12.2719 2.94341 11.2265 3.35204 10.4519 4.08988L11.1417 4.81396ZM10.2702 6.45947C10.367 5.84302 10.6687 5.26446 11.1417 4.81396L10.4519 4.08988C9.82251 4.68944 9.41377 5.46687 9.28228 6.30437L10.2702 6.45947ZM16.9201 5.88192H9.77623V6.88192H16.9201V5.88192ZM18.5198 7.32965H8.24996V8.32965H18.5198V7.32965ZM21.3711 10.1177C20.9723 8.38628 19.8952 7.32965 18.5198 7.32965V8.32965C19.2709 8.32965 20.062 8.88956 20.3966 10.3421L21.3711 10.1177ZM22.1529 15.9308L21.3794 10.1634L20.3883 10.2964L21.1618 16.0637L22.1529 15.9308ZM17.5777 21.0522C19.1502 21.0522 20.4492 20.6648 21.2844 19.7657C22.1274 18.8581 22.3947 17.5421 22.1518 15.9231L21.1629 16.0714C21.3803 17.5209 21.1116 18.4824 20.5517 19.0851C19.9839 19.6964 19.013 20.0522 17.5777 20.0522V21.0522ZM9.15503 21.0522H17.5777V20.0522H9.15503V21.0522ZM4.61624 15.9347C4.3459 17.6599 4.51735 18.9958 5.34901 19.8836C6.16869 20.7587 7.49812 21.0522 9.15503 21.0522V20.0522C7.55512 20.0522 6.59895 19.7552 6.07884 19.2C5.57071 18.6575 5.34817 17.7233 5.60419 16.0895L4.61624 15.9347ZM5.40186 10.0999L4.61469 15.9454L5.60574 16.0788L6.39291 10.2333L5.40186 10.0999ZM8.24996 7.32965C7.57095 7.32965 6.9341 7.57417 6.42712 8.0549C5.92398 8.53198 5.57236 9.21816 5.40657 10.0712L6.3882 10.262C6.52321 9.56729 6.79412 9.08499 7.11519 8.78054C7.43243 8.47973 7.82146 8.32965 8.24996 8.32965V7.32965ZM17.6062 11.2403C17.6062 10.5437 17.0223 10.0164 16.3494 10.0164V11.0164C16.5124 11.0164 16.6062 11.1373 16.6062 11.2403H17.6062ZM16.5165 12.4534C17.1145 12.3758 17.6062 11.8781 17.6062 11.2403H16.6062C16.6062 11.3353 16.5285 11.4434 16.3878 11.4617L16.5165 12.4534ZM16.3815 12.4631L16.4842 12.4565L16.42 11.4586L16.3173 11.4652L16.3815 12.4631ZM16.3033 12.4641H16.3494V11.4641H16.3033V12.4641ZM15.0465 11.2403C15.0465 11.9369 15.6303 12.4641 16.3033 12.4641V11.4641C16.1403 11.4641 16.0465 11.3432 16.0465 11.2403H15.0465ZM16.1362 10.0272C15.5382 10.1048 15.0465 10.6024 15.0465 11.2403H16.0465C16.0465 11.1452 16.1242 11.0371 16.2649 11.0189L16.1362 10.0272ZM16.2711 10.0174L16.1685 10.024L16.2327 11.022L16.3354 11.0154L16.2711 10.0174ZM16.3494 10.0164H16.3033V11.0164H16.3494V10.0164ZM10.4665 11.0164C10.6294 11.0164 10.7232 11.1373 10.7232 11.2403H11.7232C11.7232 10.5437 11.1394 10.0164 10.4665 10.0164V11.0164ZM10.4203 11.0164H10.4665V10.0164H10.4203V11.0164ZM10.3497 11.022L10.4524 11.0154L10.3882 10.0174L10.2855 10.024L10.3497 11.022ZM10.1636 11.2403C10.1636 11.1452 10.2413 11.0371 10.3819 11.0189L10.2533 10.0272C9.65522 10.1048 9.16356 10.6024 9.16356 11.2403H10.1636ZM10.4203 11.4641C10.2573 11.4641 10.1636 11.3432 10.1636 11.2403H9.16356C9.16356 11.9369 9.74737 12.4641 10.4203 12.4641V11.4641ZM10.4665 11.4641H10.4203V12.4641H10.4665V11.4641ZM10.537 11.4586L10.4344 11.4652L10.4986 12.4631L10.6013 12.4565L10.537 11.4586ZM10.7232 11.2403C10.7232 11.3353 10.6455 11.4434 10.5048 11.4617L10.6335 12.4534C11.2315 12.3758 11.7232 11.8781 11.7232 11.2403H10.7232Z" fill="#C98848"/>
</svg>
