<svg width="12" height="11" viewBox="0 0 12 11" fill="none" xmlns="http://www.w3.org/2000/svg">
<path d="M0 0.352C0 0.258644 0.042144 0.169111 0.117161 0.103098C0.192178 0.0370856 0.293922 0 0.400012 0H1.60005C1.68928 2.16913e-05 1.77594 0.0262949 1.84624 0.0746414C1.91655 0.122988 1.96647 0.190632 1.98806 0.266816L2.31207 1.408H11.6004C11.6591 1.40805 11.7171 1.41948 11.7702 1.44148C11.8234 1.46347 11.8704 1.4955 11.9079 1.53529C11.9454 1.57507 11.9725 1.62163 11.9872 1.67166C12.0019 1.72169 12.004 1.77397 11.9932 1.82477L10.7931 7.45677C10.776 7.53743 10.7273 7.61028 10.6556 7.66273C10.5839 7.71518 10.4936 7.74392 10.4003 7.744H3.2001C3.10684 7.74392 3.01655 7.71518 2.94482 7.66273C2.87309 7.61028 2.82445 7.53743 2.80729 7.45677L1.60805 1.83533L1.28804 0.704H0.400012C0.293922 0.704 0.192178 0.666914 0.117161 0.600902C0.042144 0.534889 0 0.445356 0 0.352ZM2.48168 2.112L3.53211 7.04H10.0683L11.1187 2.112H2.48168ZM4.00012 7.744C3.57576 7.744 3.16879 7.89234 2.86872 8.15639C2.56865 8.42045 2.40007 8.77858 2.40007 9.152C2.40007 9.52543 2.56865 9.88356 2.86872 10.1476C3.16879 10.4117 3.57576 10.56 4.00012 10.56C4.42448 10.56 4.83146 10.4117 5.13153 10.1476C5.4316 9.88356 5.60017 9.52543 5.60017 9.152C5.60017 8.77858 5.4316 8.42045 5.13153 8.15639C4.83146 7.89234 4.42448 7.744 4.00012 7.744ZM9.6003 7.744C9.17594 7.744 8.76896 7.89234 8.46889 8.15639C8.16882 8.42045 8.00025 8.77858 8.00025 9.152C8.00025 9.52543 8.16882 9.88356 8.46889 10.1476C8.76896 10.4117 9.17594 10.56 9.6003 10.56C10.0247 10.56 10.4316 10.4117 10.7317 10.1476C11.0318 9.88356 11.2003 9.52543 11.2003 9.152C11.2003 8.77858 11.0318 8.42045 10.7317 8.15639C10.4316 7.89234 10.0247 7.744 9.6003 7.744ZM4.00012 8.448C4.2123 8.448 4.41579 8.52217 4.56583 8.6542C4.71586 8.78622 4.80015 8.96529 4.80015 9.152C4.80015 9.33871 4.71586 9.51778 4.56583 9.6498C4.41579 9.78183 4.2123 9.856 4.00012 9.856C3.78794 9.856 3.58445 9.78183 3.43442 9.6498C3.28439 9.51778 3.2001 9.33871 3.2001 9.152C3.2001 8.96529 3.28439 8.78622 3.43442 8.6542C3.58445 8.52217 3.78794 8.448 4.00012 8.448ZM9.6003 8.448C9.81248 8.448 10.016 8.52217 10.166 8.6542C10.316 8.78622 10.4003 8.96529 10.4003 9.152C10.4003 9.33871 10.316 9.51778 10.166 9.6498C10.016 9.78183 9.81248 9.856 9.6003 9.856C9.38812 9.856 9.18463 9.78183 9.03459 9.6498C8.88456 9.51778 8.80027 9.33871 8.80027 9.152C8.80027 8.96529 8.88456 8.78622 9.03459 8.6542C9.18463 8.52217 9.38812 8.448 9.6003 8.448Z" fill="black"/>
</svg>
