<svg width="22" height="22" viewBox="0 0 22 22" fill="none" xmlns="http://www.w3.org/2000/svg">
<path fill-rule="evenodd" clip-rule="evenodd" d="M16.4451 5.38192C16.1776 2.91976 14.0016 1.00004 11.3569 1.00004C9.99953 0.994579 8.69273 1.50773 7.72864 2.42606C6.89178 3.2232 6.37298 4.26864 6.25063 5.38192H6.24972C4.39672 5.38192 2.83991 6.68308 2.40254 8.94232L1.61107 14.8123C0.937372 19.1105 3.03991 21 7.15479 21H15.5775C19.3828 21 21.6572 18.8703 21.1902 15.0482L20.3731 8.98167C19.8493 6.69432 18.3326 5.38192 16.5195 5.38192H16.4451ZM14.9198 5.38192C14.6613 3.7215 13.1643 2.44777 11.3537 2.44777C10.3956 2.44391 9.47543 2.80526 8.79655 3.45192C8.24536 3.97695 7.89012 4.65494 7.77598 5.38192H14.9198ZM6.24972 6.82965H16.5195C17.5828 6.82965 18.5169 7.63792 18.8836 9.22989L19.6571 14.9973C20.1174 18.0657 18.5852 19.5522 15.5775 19.5522H7.15479C3.89796 19.5522 2.58361 18.3711 3.10997 15.0121L3.89714 9.16659C4.19794 7.61886 5.14221 6.82965 6.24972 6.82965ZM14.3492 9.5164C14.7671 9.5164 15.1059 9.84048 15.1059 10.2403C15.1059 10.6067 14.8212 10.9096 14.4519 10.9575L14.3492 10.9641H14.303C13.8851 10.9641 13.5463 10.64 13.5463 10.2403C13.5463 9.8738 13.831 9.57094 14.2003 9.52301L14.303 9.5164H14.3492ZM9.22295 10.2403C9.22295 9.84048 8.88415 9.5164 8.46622 9.5164H8.42004L8.31736 9.52301C7.948 9.57094 7.66331 9.8738 7.66331 10.2403C7.66331 10.64 8.00211 10.9641 8.42004 10.9641H8.46622L8.5689 10.9575C8.93826 10.9096 9.22295 10.6067 9.22295 10.2403Z" fill="#9CA3AF"/>
<path d="M11.3569 1.00004L11.3549 1.50004H11.3569V1.00004ZM16.4451 5.38192L15.948 5.43593L15.9965 5.88192H16.4451V5.38192ZM7.72864 2.42606L8.0735 2.7881V2.7881L7.72864 2.42606ZM6.25063 5.38192V5.88192H6.69869L6.74764 5.43655L6.25063 5.38192ZM2.40254 8.94232L1.91165 8.84729L1.90893 8.86133L1.90702 8.87551L2.40254 8.94232ZM1.61107 14.8123L2.10516 14.8898L2.10659 14.8792L1.61107 14.8123ZM21.1902 15.0482L21.6866 14.9876L21.6857 14.9815L21.1902 15.0482ZM20.3731 8.98167L20.8687 8.91493L20.8656 8.8923L20.8605 8.87005L20.3731 8.98167ZM11.3537 2.44777L11.3517 2.94777H11.3537L11.3537 2.44777ZM14.9198 5.38192V5.88192H15.5037L15.4139 5.30501L14.9198 5.38192ZM8.79655 3.45192L8.45169 3.08988V3.08988L8.79655 3.45192ZM7.77598 5.38192L7.28204 5.30437L7.19136 5.88192H7.77598V5.38192ZM18.8836 9.22989L19.3792 9.16343L19.3761 9.14035L19.3709 9.11766L18.8836 9.22989ZM19.6571 14.9973L19.1615 15.0637L19.1626 15.0714L19.6571 14.9973ZM3.10997 15.0121L3.60406 15.0895L3.6055 15.0788L3.10997 15.0121ZM3.89714 9.16659L3.40633 9.0712L3.40355 9.08546L3.40162 9.09986L3.89714 9.16659ZM14.4519 10.9575L14.484 11.4565L14.5001 11.4554L14.5162 11.4534L14.4519 10.9575ZM14.3492 10.9641V11.4641H14.3653L14.3813 11.4631L14.3492 10.9641ZM14.2003 9.52301L14.1682 9.02404L14.152 9.02508L14.136 9.02717L14.2003 9.52301ZM14.303 9.5164V9.0164H14.2869L14.2709 9.01743L14.303 9.5164ZM8.42004 9.5164V9.0164H8.40397L8.38793 9.01743L8.42004 9.5164ZM8.31736 9.52301L8.28525 9.02404L8.26908 9.02508L8.25301 9.02717L8.31736 9.52301ZM8.46622 10.9641V11.4641H8.48229L8.49833 11.4631L8.46622 10.9641ZM8.5689 10.9575L8.60101 11.4565L8.61718 11.4554L8.63325 11.4534L8.5689 10.9575ZM11.3569 1.50004C13.7615 1.50004 15.7097 3.24227 15.948 5.43593L16.9422 5.32791C16.6455 2.59725 14.2417 0.500043 11.3569 0.500043V1.50004ZM8.0735 2.7881C8.94197 1.96085 10.1236 1.49508 11.3549 1.50004L11.3589 0.500047C9.87542 0.494075 8.44349 1.05461 7.38378 2.06402L8.0735 2.7881ZM6.74764 5.43655C6.85686 4.44279 7.32031 3.50554 8.0735 2.7881L7.38378 2.06402C6.46324 2.94087 5.88911 4.0945 5.75362 5.3273L6.74764 5.43655ZM6.24972 5.88192H6.25063V4.88192H6.24972V5.88192ZM2.89342 9.03735C3.29249 6.97598 4.67226 5.88192 6.24972 5.88192V4.88192C4.12119 4.88192 2.38733 6.39018 1.91165 8.84729L2.89342 9.03735ZM2.10659 14.8792L2.89805 9.00913L1.90702 8.87551L1.11556 14.7455L2.10659 14.8792ZM7.15479 20.5C5.15615 20.5 3.76865 20.0387 2.95032 19.1742C2.14324 18.3217 1.78074 16.9588 2.10504 14.8898L1.11711 14.7349C0.767704 16.9641 1.11963 18.695 2.22411 19.8617C3.31735 21.0165 5.03855 21.5 7.15479 21.5V20.5ZM15.5775 20.5H7.15479V21.5H15.5775V20.5ZM20.6939 15.1089C20.9139 16.9096 20.4827 18.2325 19.6281 19.1081C18.7654 19.9921 17.3936 20.5 15.5775 20.5V21.5C17.5667 21.5 19.2348 20.9429 20.3438 19.8066C21.461 18.6618 21.9335 17.0089 21.6865 14.9876L20.6939 15.1089ZM19.8776 9.04841L20.6947 15.115L21.6857 14.9815L20.8687 8.91493L19.8776 9.04841ZM16.5195 5.88192C18.044 5.88192 19.4005 6.9743 19.8858 9.09328L20.8605 8.87005C20.2981 6.41435 18.6212 4.88192 16.5195 4.88192V5.88192ZM16.4451 5.88192H16.5195V4.88192H16.4451V5.88192ZM11.3537 2.94777C12.931 2.94777 14.2072 4.05463 14.4258 5.45883L15.4139 5.30501C15.1155 3.38838 13.3977 1.94777 11.3537 1.94777L11.3537 2.94777ZM9.14141 3.81396C9.72456 3.25849 10.5196 2.94442 11.3517 2.94776L11.3557 1.94777C10.2717 1.94341 9.2263 2.35204 8.45169 3.08988L9.14141 3.81396ZM8.26993 5.45947C8.36672 4.84302 8.66846 4.26446 9.14141 3.81396L8.45169 3.08988C7.82226 3.68944 7.41352 4.46687 7.28204 5.30437L8.26993 5.45947ZM14.9198 4.88192H7.77598V5.88192H14.9198V4.88192ZM16.5195 6.32965H6.24972V7.32965H16.5195V6.32965ZM19.3709 9.11766C18.972 7.38628 17.895 6.32965 16.5195 6.32965V7.32965C17.2706 7.32965 18.0618 7.88956 18.3964 9.34212L19.3709 9.11766ZM20.1527 14.9308L19.3792 9.16343L18.388 9.29635L19.1615 15.0637L20.1527 14.9308ZM15.5775 20.0522C17.1499 20.0522 18.4489 19.6648 19.2841 18.7657C20.1272 17.8581 20.3944 16.5421 20.1516 14.9231L19.1626 15.0714C19.3801 16.5209 19.1113 17.4824 18.5514 18.0851C17.9837 18.6964 17.0127 19.0522 15.5775 19.0522V20.0522ZM7.15479 20.0522H15.5775V19.0522H7.15479V20.0522ZM2.616 14.9347C2.34565 16.6599 2.5171 17.9958 3.34877 18.8836C4.16845 19.7587 5.49787 20.0522 7.15479 20.0522V19.0522C5.55487 19.0522 4.59871 18.7552 4.07859 18.2C3.57047 17.6575 3.34793 16.7233 3.60394 15.0895L2.616 14.9347ZM3.40162 9.09986L2.61444 14.9454L3.6055 15.0788L4.39267 9.23332L3.40162 9.09986ZM6.24972 6.32965C5.57071 6.32965 4.93385 6.57417 4.42688 7.0549C3.92374 7.53198 3.57211 8.21816 3.40633 9.0712L4.38796 9.26198C4.52297 8.56729 4.79387 8.08499 5.11495 7.78054C5.43218 7.47973 5.82122 7.32965 6.24972 7.32965V6.32965ZM15.6059 10.2403C15.6059 9.54365 15.0221 9.0164 14.3492 9.0164V10.0164C14.5121 10.0164 14.6059 10.1373 14.6059 10.2403H15.6059ZM14.5162 11.4534C15.1142 11.3758 15.6059 10.8781 15.6059 10.2403H14.6059C14.6059 10.3353 14.5282 10.4434 14.3875 10.4617L14.5162 11.4534ZM14.3813 11.4631L14.484 11.4565L14.4198 10.4586L14.3171 10.4652L14.3813 11.4631ZM14.303 11.4641H14.3492V10.4641H14.303V11.4641ZM13.0463 10.2403C13.0463 10.9369 13.6301 11.4641 14.303 11.4641V10.4641C14.1401 10.4641 14.0463 10.3432 14.0463 10.2403H13.0463ZM14.136 9.02717C13.5379 9.10477 13.0463 9.60239 13.0463 10.2403H14.0463C14.0463 10.1452 14.124 10.0371 14.2647 10.0189L14.136 9.02717ZM14.2709 9.01743L14.1682 9.02404L14.2324 10.022L14.3351 10.0154L14.2709 9.01743ZM14.3492 9.0164H14.303V10.0164H14.3492V9.0164ZM8.46622 10.0164C8.62916 10.0164 8.72295 10.1373 8.72295 10.2403H9.72295C9.72295 9.54365 9.13914 9.0164 8.46622 9.0164V10.0164ZM8.42004 10.0164H8.46622V9.0164H8.42004V10.0164ZM8.34947 10.022L8.45215 10.0154L8.38793 9.01743L8.28525 9.02404L8.34947 10.022ZM8.16331 10.2403C8.16331 10.1452 8.24102 10.0371 8.3817 10.0189L8.25301 9.02717C7.65498 9.10477 7.16331 9.60239 7.16331 10.2403H8.16331ZM8.42004 10.4641C8.2571 10.4641 8.16331 10.3432 8.16331 10.2403H7.16331C7.16331 10.9369 7.74712 11.4641 8.42004 11.4641V10.4641ZM8.46622 10.4641H8.42004V11.4641H8.46622V10.4641ZM8.53679 10.4586L8.43411 10.4652L8.49833 11.4631L8.60101 11.4565L8.53679 10.4586ZM8.72295 10.2403C8.72295 10.3353 8.64524 10.4434 8.50456 10.4617L8.63325 11.4534C9.23128 11.3758 9.72295 10.8781 9.72295 10.2403H8.72295Z" fill="#9CA3AF"/>
</svg>
