
<svg width="12" height="12" viewBox="0 0 12 12" fill="none" xmlns="http://www.w3.org/2000/svg">
<path d="M5.18366 8.68329L9.29616 4.57079L8.47949 3.75413L5.18366 7.04996L3.52116 5.38746L2.70449 6.20413L5.18366 8.68329ZM6.00033 11.8333C5.19338 11.8333 4.43505 11.6801 3.72533 11.3736C3.0156 11.0672 2.39824 10.6517 1.87324 10.127C1.34824 9.60204 0.932714 8.98468 0.626659 8.27496C0.320603 7.56524 0.167381 6.8069 0.166992 5.99996C0.166992 5.19301 0.320214 4.43468 0.626659 3.72496C0.933103 3.01524 1.34863 2.39788 1.87324 1.87288C2.39824 1.34788 3.0156 0.932348 3.72533 0.626293C4.43505 0.320237 5.19338 0.167015 6.00033 0.166626C6.80727 0.166626 7.5656 0.319848 8.27532 0.626293C8.98505 0.932737 9.60241 1.34826 10.1274 1.87288C10.6524 2.39788 11.0681 3.01524 11.3746 3.72496C11.681 4.43468 11.834 5.19301 11.8337 5.99996C11.8337 6.8069 11.6804 7.56524 11.374 8.27496C11.0675 8.98468 10.652 9.60204 10.1274 10.127C9.60241 10.652 8.98505 11.0678 8.27532 11.3742C7.5656 11.6807 6.80727 11.8337 6.00033 11.8333Z" fill="#38D79F"/>
</svg>
