<svg width="24" height="24" viewBox="0 0 24 24" fill="none" xmlns="http://www.w3.org/2000/svg">
<path d="M22 20.7273H2C0.897 20.7273 0 19.7487 0 18.5455V2.18182C0 0.978545 0.897 0 2 0H22C23.103 0 24 0.978545 24 2.18182V18.5455C24 19.7487 23.103 20.7273 22 20.7273ZM2 1.09091C1.4485 1.09091 1 1.58018 1 2.18182V18.5455C1 19.1471 1.4485 19.6364 2 19.6364H22C22.5515 19.6364 23 19.1471 23 18.5455V2.18182C23 1.58018 22.5515 1.09091 22 1.09091H2Z" fill="white"/>
<path d="M19 24H5C4.724 24 4.5 23.7556 4.5 23.4545C4.5 23.1535 4.724 22.9091 5 22.9091H19C19.276 22.9091 19.5 23.1535 19.5 23.4545C19.5 23.7556 19.276 24 19 24Z" fill="white"/>
<path d="M15.5099 24C15.5064 24 15.5034 24 15.4999 24H8.49995C8.33945 24 8.18845 23.916 8.09445 23.7731C8.00045 23.6307 7.97495 23.448 8.02545 23.2816L9.02545 20.0089C9.09395 19.7864 9.28445 19.6364 9.49995 19.6364H14.4999C14.7154 19.6364 14.9059 19.7864 14.9744 20.0094L15.9444 23.1845C15.9859 23.2642 16.0099 23.3564 16.0099 23.4545C16.0099 23.7556 15.7859 24 15.5099 24ZM9.19345 22.9091H14.8064L14.1399 20.7273H9.86045L9.19345 22.9091Z" fill="white"/>
<path d="M22 16.3636H2V2.18182H22V16.3636ZM3 15.2727H21V3.27273H3V15.2727Z" fill="white"/>
<path d="M12 19.0909C12.5523 19.0909 13 18.6025 13 18C13 17.3975 12.5523 16.9091 12 16.9091C11.4477 16.9091 11 17.3975 11 18C11 18.6025 11.4477 19.0909 12 19.0909Z" fill="white"/>
</svg>
