<svg width="24" height="21" viewBox="0 0 24 21" fill="none" xmlns="http://www.w3.org/2000/svg">
<path d="M12 5.6875C13.8387 5.68215 15.6419 6.13094 17.2021 6.98226C18.7624 7.83359 20.0164 9.05289 20.82 10.5C19.17 13.4487 15.8 15.3125 12 15.3125C8.2 15.3125 4.83 13.4487 3.18 10.5C3.98362 9.05289 5.23763 7.83359 6.79788 6.98226C8.35813 6.13094 10.1613 5.68215 12 5.6875ZM12 3.9375C7 3.9375 2.73 6.65875 1 10.5C2.73 14.3412 7 17.0625 12 17.0625C17 17.0625 21.27 14.3412 23 10.5C21.27 6.65875 17 3.9375 12 3.9375ZM12 8.3125C12.663 8.3125 13.2989 8.54297 13.7678 8.9532C14.2366 9.36344 14.5 9.91984 14.5 10.5C14.5 11.0802 14.2366 11.6366 13.7678 12.0468C13.2989 12.457 12.663 12.6875 12 12.6875C11.337 12.6875 10.7011 12.457 10.2322 12.0468C9.76339 11.6366 9.5 11.0802 9.5 10.5C9.5 9.91984 9.76339 9.36344 10.2322 8.9532C10.7011 8.54297 11.337 8.3125 12 8.3125ZM12 6.5625C9.52 6.5625 7.5 8.33 7.5 10.5C7.5 12.67 9.52 14.4375 12 14.4375C14.48 14.4375 16.5 12.67 16.5 10.5C16.5 8.33 14.48 6.5625 12 6.5625Z" fill="white"/>
</svg>
