<svg width="24" height="24" viewBox="0 0 24 24" fill="none" xmlns="http://www.w3.org/2000/svg">
<path d="M23.8932 11.3371C23.7385 10.399 23.4164 9.51707 22.9617 8.78673C21.4332 6.33139 19.1613 5.20619 17.4373 4.69084C16.5687 2.37455 14.9488 0 11.9578 0C9.96272 0 8.37166 1.04423 7.22865 3.1037C6.95351 3.59941 6.72037 4.12624 6.5218 4.66371C6.42 4.68973 6.31641 4.71797 6.21148 4.74816C6.00316 4.17753 5.76443 3.70741 5.49436 3.44786C5.20417 3.1691 4.89154 3.13567 4.59027 3.35134C3.96784 3.79739 3.42391 4.99529 3.01748 6.36507C2.34028 6.90194 1.69706 7.5804 1.14461 8.4378C0.271767 9.79252 -0.104975 11.3571 0.0250405 13.0882C0.266654 16.3062 2.29203 19.4106 4.07172 20.9334C6.41124 22.935 9.1536 23.9954 12.0025 24L12.0104 23.9997L12.023 24L12.0258 23.9997C14.9985 23.9932 17.9311 22.7988 20.2845 20.6362C20.9643 20.0115 23.2324 17.6897 23.8768 14.0399C24.0354 13.1419 24.0409 12.2325 23.8932 11.3371ZM6.73382 6.29678C6.73997 6.27492 6.7458 6.25315 6.7521 6.23129C6.80688 6.03978 6.86597 5.84818 6.92955 5.65768C6.93845 5.63107 6.94788 5.6047 6.95687 5.57817C6.97979 5.51099 7.00299 5.44389 7.02704 5.37713C7.03945 5.34277 7.05228 5.30859 7.06501 5.2744C7.08684 5.21538 7.10905 5.15653 7.13182 5.09794C7.14612 5.0612 7.16066 5.02472 7.17533 4.98815C7.19792 4.93193 7.22098 4.87598 7.24441 4.8201C7.2599 4.78337 7.27543 4.7468 7.29129 4.71023C7.31572 4.6541 7.34076 4.5984 7.36614 4.54287C7.382 4.50808 7.39768 4.47322 7.41392 4.43861C7.44223 4.37865 7.47144 4.31938 7.50085 4.2601C7.51524 4.2311 7.52916 4.20185 7.54384 4.17319C7.58839 4.08594 7.63408 3.99936 7.68138 3.91415C8.70006 2.0786 10.1388 1.14798 11.9578 1.14798C14.4168 1.14798 16.1715 2.81991 17.1732 6.11759C17.2021 6.2125 17.2295 6.30758 17.2563 6.40265C17.2615 6.42119 17.2668 6.43973 17.272 6.45819C17.2975 6.54995 17.3221 6.64162 17.3457 6.73304C17.35 6.74954 17.3541 6.76612 17.3584 6.78262C17.3815 6.87336 17.404 6.96393 17.4254 7.05408C17.4265 7.05918 17.4279 7.0642 17.4291 7.0693C17.4514 7.16361 17.4725 7.25758 17.4931 7.35104C17.4966 7.36729 17.5002 7.38362 17.5037 7.39986C17.5237 7.49221 17.5429 7.58406 17.5612 7.67505C17.5632 7.68517 17.5652 7.69529 17.5672 7.70541C17.5855 7.79726 17.603 7.88842 17.6196 7.97874C17.6203 7.98265 17.621 7.98656 17.6218 7.99048C17.6389 8.08385 17.6551 8.17612 17.6705 8.26746C17.6723 8.27792 17.674 8.28838 17.6758 8.29884C17.6912 8.39077 17.7059 8.48168 17.7197 8.57123C17.6492 8.64343 17.5784 8.71384 17.5075 8.78307C17.5006 8.78962 17.4939 8.79659 17.4871 8.80314C17.421 8.86743 17.3547 8.92985 17.2883 8.99159C17.2765 9.00256 17.2646 9.01404 17.2527 9.02501C17.1899 9.08301 17.1267 9.13931 17.0634 9.19501C17.048 9.20862 17.0326 9.22265 17.0171 9.23609C16.9563 9.28907 16.8953 9.34044 16.8343 9.3912C16.8162 9.40634 16.7981 9.42173 16.7801 9.43662C16.7212 9.48492 16.6621 9.53178 16.603 9.5783C16.5824 9.59437 16.5619 9.61095 16.5413 9.62686C16.4839 9.67116 16.4263 9.71411 16.3687 9.75655C16.3463 9.77313 16.3239 9.79005 16.3014 9.8063C16.2451 9.84703 16.1886 9.88649 16.1321 9.92552C16.1081 9.94211 16.0842 9.95903 16.0601 9.97519C16.0048 10.0126 15.9493 10.0488 15.8938 10.0846C15.8683 10.101 15.8429 10.1176 15.8173 10.1336C15.763 10.1678 15.7084 10.2009 15.6539 10.2335C15.627 10.2496 15.6 10.2659 15.573 10.2815C15.5196 10.3126 15.4659 10.3428 15.4122 10.3724C15.384 10.3881 15.3558 10.4036 15.3274 10.4189C15.2747 10.4472 15.2218 10.4745 15.1688 10.5013C15.1394 10.5162 15.1101 10.5311 15.0806 10.5456C15.0284 10.5711 14.9762 10.5958 14.9238 10.62C14.8933 10.634 14.8628 10.648 14.8323 10.6616C14.7807 10.6845 14.7291 10.7066 14.6774 10.7282C14.6459 10.7413 14.6143 10.7543 14.5827 10.7669C14.5317 10.7873 14.4807 10.8071 14.4296 10.8261C14.397 10.8383 14.3644 10.8501 14.3317 10.8618C14.2814 10.8797 14.2309 10.897 14.1804 10.9136C14.1467 10.9247 14.113 10.9354 14.0794 10.9459C14.0296 10.9614 13.9798 10.9764 13.9299 10.9906C13.8951 11.0005 13.8603 11.0101 13.8254 11.0194C13.7764 11.0325 13.7272 11.0454 13.6779 11.0573C13.6422 11.066 13.6064 11.074 13.5706 11.0821C13.522 11.0931 13.4732 11.1037 13.4244 11.1135C13.3878 11.1208 13.351 11.1275 13.3143 11.1341C13.2662 11.143 13.2181 11.1515 13.1698 11.1591C13.1321 11.165 13.0945 11.1703 13.0567 11.1756C13.0091 11.1822 12.9615 11.1887 12.9137 11.1943C12.8751 11.1988 12.8364 11.2024 12.7977 11.2062C12.7507 11.2108 12.7037 11.2153 12.6565 11.2188C12.617 11.2217 12.5773 11.2239 12.5377 11.226C12.5351 11.2262 12.5326 11.2262 12.5301 11.2264C12.5337 11.1045 12.5366 10.9829 12.5382 10.8623C12.553 9.68673 12.4774 8.06625 12.0328 7.02346C11.8032 6.48463 11.4871 6.1926 11.1186 6.17916C11.1098 6.17882 11.101 6.17874 11.0922 6.17874C10.0878 6.17874 8.86431 8.25368 8.25291 9.42641C8.21792 9.40047 8.18222 9.37709 8.1451 9.35897L7.45374 9.02085C7.35592 8.97305 7.25748 8.95758 7.16146 8.96821C7.06506 8.30743 6.90967 7.36703 6.69504 6.4371C6.70797 6.39066 6.72061 6.34372 6.73382 6.29678ZM17.842 9.76369L17.94 10.9744C17.5963 11.5058 16.3763 13.1044 13.851 13.6625C13.7348 13.6883 13.6166 13.7107 13.4973 13.7314C13.4798 13.7345 13.4624 13.7377 13.4448 13.7406C13.3276 13.7601 13.2091 13.7773 13.0892 13.792C13.0738 13.7938 13.0582 13.7956 13.0427 13.7974C12.8005 13.8259 12.553 13.8442 12.3019 13.8531C12.372 13.3772 12.4281 12.8732 12.4684 12.3624C14.0917 12.2865 15.9484 11.6193 17.842 9.76369ZM9.45278 11.3049C9.43702 11.3092 9.4213 11.3112 9.40586 11.3112C9.24995 11.3112 9.1134 11.106 9.09006 10.8207C9.06435 10.507 9.18504 10.2153 9.35965 10.1692L10.2276 9.93956C10.4023 9.89236 10.5646 10.1102 10.5904 10.4238C10.6161 10.7373 10.4954 11.029 10.3208 11.0752L9.45278 11.3049ZM10.2283 13.6599C10.1657 13.8131 10.0687 13.8944 9.97039 13.8944C9.90471 13.8944 9.83857 13.8582 9.78161 13.783L9.0001 12.753C8.85777 12.5654 8.82704 12.206 8.93149 11.9505C9.03589 11.6949 9.23598 11.6397 9.37826 11.8273L10.1598 12.8574C10.3021 13.045 10.3327 13.4043 10.2283 13.6599ZM8.16456 11.0541L7.92934 12.6072C7.91078 12.7294 7.86641 12.8318 7.80429 12.8956C7.74217 12.9594 7.67044 12.9762 7.60245 12.9432L6.91099 12.6051C6.843 12.5719 6.78595 12.4922 6.75044 12.3806C6.71483 12.269 6.70551 12.1404 6.72397 12.0182L6.95924 10.4653C6.99139 10.2526 7.0991 10.1125 7.21629 10.1125C7.2393 10.1125 7.26278 10.1179 7.28608 10.1292L7.97749 10.4672C8.04548 10.5005 8.10249 10.5802 8.13809 10.6918C8.17365 10.8032 8.18303 10.9319 8.16456 11.0541ZM5.1625 8.37929C5.26975 8.12739 5.4704 8.07951 5.61051 8.27196L6.15382 9.01821C6.29401 9.21083 6.32081 9.57107 6.21357 9.82288C6.15064 9.9706 6.05557 10.0482 5.95945 10.0482C5.89175 10.0482 5.82352 10.0097 5.76557 9.93012L5.22226 9.18387C5.08206 8.99134 5.05526 8.6311 5.1625 8.37929ZM4.95271 10.4902L5.70908 10.3754C5.88389 10.3501 6.03952 10.5831 6.05443 10.899C6.06925 11.215 5.93881 11.4926 5.76287 11.5194L5.0065 11.6342C4.99741 11.6356 4.98827 11.6361 4.97922 11.6361C4.81493 11.6361 4.67525 11.4099 4.66114 11.1104C4.64628 10.7946 4.77677 10.5169 4.95271 10.4902ZM23.2676 13.6926C22.8149 16.2561 21.2795 18.4322 19.9934 19.6142C17.7262 21.6974 14.8937 22.8472 12.0174 22.8516L12.003 22.8518C9.24858 22.8474 6.60106 21.8257 4.34676 19.897C2.12593 17.9967 0.81039 14.9562 0.658594 12.9349C0.559307 11.6123 0.863514 10.3916 1.56269 9.3065C1.77343 8.97935 2.11372 8.51672 2.60533 8.02585C2.45225 8.77618 2.34411 9.51111 2.29042 10.1439C2.17385 11.5173 2.28781 12.4996 2.62005 12.9842C2.9422 13.4542 3.58172 13.6026 4.26087 13.6026C4.63321 13.6026 5.01739 13.558 5.36761 13.4974L3.25758 16.3833C3.1162 16.5765 3.02885 16.8701 3.01786 17.1886C3.00688 17.5072 3.07359 17.8178 3.20058 18.0408L4.05212 19.5355C4.16655 19.7364 4.3201 19.8479 4.47905 19.8479C4.49377 19.8479 4.50854 19.8471 4.52332 19.845C4.69779 19.8222 4.85863 19.666 4.96478 19.4161L6.96435 14.705L7.35705 20.5481C7.37864 20.8697 7.47622 21.1596 7.62471 21.3435C7.73076 21.4749 7.85576 21.5436 7.98237 21.5436C8.03293 21.5436 8.08379 21.5326 8.13364 21.5104L9.24739 21.0152C9.42513 20.936 9.5747 20.7223 9.65751 20.4288C9.74037 20.1354 9.74804 19.7927 9.67863 19.4883L8.78164 15.5553C9.42461 16.3746 10.1959 17.1423 10.8293 17.1423C10.8912 17.1423 10.9521 17.1349 11.0111 17.1195C11.429 17.0109 11.8002 16.2901 12.0848 15.0352C12.0868 15.0264 12.0887 15.0167 12.0907 15.0078C12.129 15.0074 12.1675 15.0073 12.2054 15.0065C12.2305 15.0059 12.255 15.0048 12.2798 15.0042C12.3271 15.0027 12.3745 15.0015 12.4211 14.9995C12.4484 14.9983 12.4752 14.9965 12.5023 14.9951C12.5458 14.9928 12.5894 14.9908 12.6324 14.988C12.6609 14.9861 12.6889 14.9836 12.7172 14.9815C12.758 14.9786 12.7991 14.9757 12.8393 14.9722C12.8679 14.9697 12.896 14.9666 12.9243 14.9638C12.9636 14.9599 13.0031 14.9564 13.0419 14.9521C13.0703 14.949 13.098 14.9453 13.126 14.9419C13.1643 14.9373 13.2026 14.933 13.2404 14.928C13.2681 14.9243 13.2953 14.9201 13.3228 14.9161C13.3601 14.9108 13.3976 14.9057 13.4344 14.9C13.4616 14.8956 13.4884 14.891 13.5154 14.8865C13.5519 14.8805 13.5885 14.8746 13.6245 14.8682C13.6508 14.8634 13.6766 14.8583 13.7027 14.8533C13.7387 14.8465 13.7747 14.8399 13.8102 14.8327C13.8358 14.8275 13.8608 14.8219 13.8861 14.8166C13.9215 14.8091 13.9569 14.8017 13.9918 14.7938C14.0166 14.7882 14.0409 14.7822 14.0655 14.7764C14.1002 14.7682 14.1351 14.7602 14.1693 14.7516C14.1929 14.7457 14.2159 14.7394 14.2393 14.7334C14.2741 14.7244 14.309 14.7154 14.3432 14.706C14.3656 14.7 14.3875 14.6935 14.4096 14.6871C14.444 14.6774 14.4784 14.6676 14.5123 14.6576C14.5343 14.651 14.5559 14.6441 14.5777 14.6374C14.6112 14.6271 14.6448 14.6169 14.6778 14.6062C14.6987 14.5994 14.7192 14.5924 14.74 14.5855C14.7732 14.5744 14.8065 14.5634 14.8393 14.552C14.8595 14.5449 14.8792 14.5377 14.8991 14.5306C14.9317 14.5189 14.9645 14.5073 14.9966 14.4953C15.0163 14.4879 15.0356 14.4803 15.0551 14.4728C15.0869 14.4606 15.1187 14.4485 15.15 14.436C15.1689 14.4285 15.1874 14.4207 15.2062 14.413C15.2376 14.4003 15.269 14.3873 15.2999 14.3743C15.3178 14.3667 15.3353 14.3589 15.3529 14.3512C15.384 14.3378 15.415 14.3243 15.4455 14.3106C15.4628 14.3027 15.4798 14.2947 15.4969 14.2869C15.5273 14.273 15.5577 14.2589 15.5876 14.2447C15.6039 14.237 15.6198 14.2291 15.6358 14.2213C15.6662 14.2066 15.6964 14.1918 15.7261 14.177C15.7414 14.1693 15.7564 14.1615 15.7714 14.1538C15.8013 14.1384 15.8311 14.1232 15.8603 14.1076C15.8752 14.0998 15.8897 14.0918 15.9044 14.0839C15.9333 14.0683 15.9623 14.0527 15.9908 14.0368C16.0051 14.0287 16.0193 14.0207 16.0335 14.0126C16.0618 13.9967 16.0899 13.9806 16.1177 13.9643C16.1314 13.9564 16.1449 13.9483 16.1585 13.9401C16.1861 13.9238 16.2137 13.9073 16.2407 13.8908C16.2539 13.8826 16.267 13.8745 16.28 13.8664C16.3071 13.8495 16.3341 13.8327 16.3606 13.8157C16.3729 13.8078 16.385 13.7998 16.3972 13.7919C16.4239 13.7745 16.4505 13.7573 16.4766 13.7398C16.4883 13.732 16.4997 13.7241 16.5113 13.7163C16.5375 13.6986 16.5635 13.6808 16.5892 13.663C16.6001 13.6553 16.6109 13.6476 16.6218 13.6399C16.6474 13.6218 16.673 13.6037 16.6981 13.5854C16.7084 13.5779 16.7186 13.5703 16.7287 13.5629C16.7539 13.5443 16.7789 13.5258 16.8035 13.5072C16.8132 13.4998 16.8228 13.4925 16.8324 13.4851C16.857 13.4664 16.8812 13.4477 16.9051 13.4289C16.9145 13.4215 16.9238 13.4141 16.933 13.4067C16.9568 13.3878 16.9804 13.3691 17.0035 13.3501C17.0124 13.3429 17.0211 13.3357 17.0299 13.3284C17.053 13.3094 17.0759 13.2904 17.0984 13.2713C17.1069 13.2641 17.1153 13.2569 17.1237 13.2497C17.146 13.2306 17.1681 13.2116 17.1898 13.1926C17.1979 13.1854 17.2059 13.1784 17.2139 13.1712C17.2356 13.152 17.2571 13.1329 17.2782 13.1137C17.2857 13.107 17.293 13.1001 17.3004 13.0934C17.3217 13.074 17.3427 13.0545 17.3633 13.0351C17.3702 13.0287 17.3769 13.0223 17.3837 13.0158C17.4044 12.9962 17.4248 12.9767 17.4449 12.9572C17.4514 12.9509 17.4578 12.9446 17.4643 12.9382C17.4841 12.9188 17.5036 12.8995 17.5228 12.8802C17.5292 12.8739 17.5355 12.8675 17.5418 12.861C17.5608 12.8417 17.5796 12.8227 17.598 12.8035C17.6039 12.7975 17.6097 12.7914 17.6156 12.7852C17.634 12.766 17.6521 12.747 17.6698 12.7279C17.6754 12.7221 17.6808 12.7161 17.6864 12.7101C17.7041 12.6911 17.7215 12.6721 17.7386 12.6533C17.7437 12.6477 17.7488 12.642 17.7538 12.6365C17.7709 12.6174 17.7878 12.5987 17.8042 12.5799C17.809 12.5745 17.8137 12.5691 17.8184 12.5637C17.8348 12.545 17.8508 12.5265 17.8665 12.5081C17.8711 12.5028 17.8755 12.4976 17.8799 12.4924C17.8957 12.4738 17.911 12.4554 17.9262 12.4373C17.9302 12.4325 17.9342 12.4276 17.9382 12.4228C17.9532 12.4046 17.9679 12.3866 17.9823 12.3688C17.9862 12.3639 17.9901 12.3591 17.9939 12.3542C18.0082 12.3366 18.022 12.319 18.0356 12.3018C18.0392 12.2971 18.0428 12.2926 18.0464 12.288C18.06 12.2706 18.0731 12.2535 18.0861 12.2365C18.0894 12.2323 18.0927 12.228 18.0959 12.2237C18.1087 12.2069 18.1211 12.1902 18.1333 12.1738C18.1364 12.1696 18.1395 12.1654 18.1426 12.1613C18.1546 12.145 18.1663 12.129 18.1777 12.1132C18.1806 12.1092 18.1835 12.1052 18.1864 12.1012C18.1977 12.0853 18.2088 12.0699 18.2195 12.0546C18.2221 12.051 18.2246 12.0472 18.2272 12.0436C18.2378 12.0284 18.2481 12.0135 18.2582 11.9989C18.2606 11.9954 18.2629 11.992 18.2652 11.9886C18.2751 11.9741 18.2845 11.9601 18.2938 11.9462C18.2962 11.9427 18.2985 11.9392 18.3008 11.9357C18.31 11.9218 18.3189 11.9084 18.3275 11.8951C18.3293 11.8923 18.3311 11.8896 18.3328 11.8868C18.3415 11.8735 18.3498 11.8605 18.3578 11.8479C18.3595 11.8453 18.3612 11.8425 18.3629 11.8397C18.3705 11.8276 18.3778 11.8159 18.3849 11.8044C18.3867 11.8016 18.3885 11.7987 18.3902 11.7959C18.3971 11.7848 18.4035 11.7743 18.4097 11.764C18.4114 11.7611 18.4132 11.7583 18.4148 11.7554C18.4208 11.7455 18.4264 11.736 18.4318 11.7269C18.4335 11.724 18.4352 11.7211 18.4368 11.7182C18.4419 11.7096 18.4466 11.7015 18.4512 11.6936C18.4528 11.6907 18.4545 11.6878 18.4562 11.6849C18.4606 11.6771 18.4647 11.6699 18.4686 11.6629C18.4699 11.6606 18.4714 11.658 18.4726 11.6557C18.4764 11.6489 18.4799 11.6427 18.4832 11.6365C18.4845 11.6343 18.4857 11.632 18.4869 11.6299C18.4898 11.6246 18.4924 11.6196 18.495 11.6149C18.4962 11.6126 18.4975 11.6102 18.4986 11.6082C18.5008 11.6042 18.5026 11.6007 18.5044 11.5972C18.5055 11.5949 18.5068 11.5926 18.5078 11.5906C18.5091 11.5881 18.5102 11.586 18.5113 11.5838C18.5125 11.5814 18.5138 11.5791 18.5147 11.5772C18.5148 11.577 18.5149 11.5768 18.515 11.5766C18.5154 11.5758 18.5164 11.574 18.5167 11.5733C18.5169 11.573 18.5169 11.5728 18.517 11.5725C18.5173 11.5719 18.5178 11.5709 18.5181 11.5705C18.5185 11.5696 18.5188 11.5685 18.5192 11.5677C18.5308 11.5442 18.5409 11.519 18.55 11.4927C18.5516 11.4883 18.5532 11.4842 18.5547 11.4798C18.5634 11.4534 18.5707 11.4258 18.5769 11.3975C18.5769 11.3974 18.5769 11.3974 18.5769 11.3974C18.5782 11.3916 18.5794 11.3856 18.5805 11.3798C18.5863 11.3506 18.591 11.321 18.5941 11.2905C18.5945 11.2871 18.5946 11.2839 18.5949 11.2806C18.5949 11.2806 18.5949 11.2806 18.5949 11.2805C18.5976 11.2511 18.5989 11.2214 18.599 11.1914C18.599 11.1881 18.5994 11.1849 18.5994 11.1816C18.5987 11.0728 18.5745 8.60193 17.8561 5.99164C19.4082 6.54059 21.2636 7.59962 22.5352 9.64216C22.9014 10.2306 23.1589 10.9293 23.2799 11.6629C23.3911 12.3348 23.3868 13.0176 23.2676 13.6926Z" fill="white"/>
</svg>
