<svg width="30" height="24" viewBox="0 0 30 24" fill="none" xmlns="http://www.w3.org/2000/svg">
<path d="M29.9999 4.00001C29.9999 3.64638 29.8625 3.30724 29.6179 3.0572C29.3733 2.80715 29.0415 2.66667 28.6956 2.66667H14.9999C14.654 2.66667 14.3222 2.80715 14.0776 3.0572C13.833 3.30724 13.6956 3.64638 13.6956 4.00001C13.6956 4.35363 13.833 4.69277 14.0776 4.94281C14.3222 5.19286 14.654 5.33334 14.9999 5.33334H28.6956C29.0415 5.33334 29.3733 5.19286 29.6179 4.94281C29.8625 4.69277 29.9999 4.35363 29.9999 4.00001Z" fill="black" fill-opacity="0.8"/>
<path d="M1.30435 5.33334H4.79348C5.10117 6.22296 5.70661 6.97275 6.5028 7.45018C7.29899 7.92762 8.23465 8.10196 9.14443 7.9424C10.0542 7.78284 10.8795 7.29965 11.4745 6.57822C12.0694 5.8568 12.3958 4.94359 12.3958 4.00001C12.3958 3.05643 12.0694 2.14322 11.4745 1.42179C10.8795 0.70037 10.0542 0.217176 9.14443 0.057614C8.23465 -0.101948 7.29899 0.0723967 6.5028 0.549833C5.70661 1.02727 5.10117 1.77706 4.79348 2.66667H1.30435C0.958413 2.66667 0.626647 2.80715 0.382034 3.0572C0.137422 3.30725 0 3.64639 0 4.00001C0 4.35363 0.137422 4.69277 0.382034 4.94282C0.626647 5.19287 0.958413 5.33334 1.30435 5.33334ZM8.47826 2.66667C8.73623 2.66667 8.98841 2.74487 9.20291 2.89138C9.41741 3.03789 9.58459 3.24613 9.68332 3.48976C9.78204 3.7334 9.80787 4.00149 9.75754 4.26013C9.70721 4.51877 9.58298 4.75635 9.40057 4.94282C9.21815 5.12929 8.98574 5.25627 8.73272 5.30772C8.4797 5.35917 8.21744 5.33276 7.9791 5.23185C7.74077 5.13093 7.53706 4.96003 7.39373 4.74077C7.25041 4.5215 7.17391 4.26372 7.17391 4.00001C7.17391 3.64639 7.31133 3.30725 7.55594 3.0572C7.80056 2.80715 8.13232 2.66667 8.47826 2.66667Z" fill="black" fill-opacity="0.8"/>
<path d="M28.6956 10.6667H23.9021C23.5944 9.77706 22.989 9.02727 22.1928 8.54983C21.3966 8.0724 20.4609 7.89805 19.5511 8.05761C18.6414 8.21718 17.8161 8.70037 17.2211 9.4218C16.6261 10.1432 16.2998 11.0564 16.2998 12C16.2998 12.9436 16.6261 13.8568 17.2211 14.5782C17.8161 15.2996 18.6414 15.7828 19.5511 15.9424C20.4609 16.102 21.3966 15.9276 22.1928 15.4502C22.989 14.9727 23.5944 14.223 23.9021 13.3333H28.6956C29.0415 13.3333 29.3733 13.1929 29.6179 12.9428C29.8625 12.6928 29.9999 12.3536 29.9999 12C29.9999 11.6464 29.8625 11.3072 29.6179 11.0572C29.3733 10.8072 29.0415 10.6667 28.6956 10.6667ZM20.2173 13.3333C19.9593 13.3333 19.7072 13.2551 19.4927 13.1086C19.2782 12.9621 19.111 12.7539 19.0123 12.5103C18.9135 12.2666 18.8877 11.9985 18.938 11.7399C18.9884 11.4812 19.1126 11.2437 19.295 11.0572C19.4774 10.8707 19.7098 10.7437 19.9629 10.6923C20.2159 10.6408 20.4781 10.6673 20.7165 10.7682C20.9548 10.8691 21.1585 11.04 21.3018 11.2592C21.4452 11.4785 21.5217 11.7363 21.5217 12C21.5217 12.3536 21.3842 12.6928 21.1396 12.9428C20.895 13.1929 20.5633 13.3333 20.2173 13.3333Z" fill="black" fill-opacity="0.8"/>
<path d="M13.6956 10.6667H1.30435C0.958413 10.6667 0.626647 10.8071 0.382034 11.0572C0.137422 11.3072 0 11.6464 0 12C0 12.3536 0.137422 12.6928 0.382034 12.9428C0.626647 13.1929 0.958413 13.3333 1.30435 13.3333H13.6956C14.0416 13.3333 14.3733 13.1929 14.618 12.9428C14.8626 12.6928 15 12.3536 15 12C15 11.6464 14.8626 11.3072 14.618 11.0572C14.3733 10.8071 14.0416 10.6667 13.6956 10.6667Z" fill="black" fill-opacity="0.8"/>
<path d="M28.6957 18.6667H17.6088C17.2629 18.6667 16.9311 18.8071 16.6865 19.0572C16.4419 19.3072 16.3044 19.6464 16.3044 20C16.3044 20.3536 16.4419 20.6928 16.6865 20.9428C16.9311 21.1929 17.2629 21.3333 17.6088 21.3333H28.6957C29.0417 21.3333 29.3734 21.1929 29.6181 20.9428C29.8627 20.6928 30.0001 20.3536 30.0001 20C30.0001 19.6464 29.8627 19.3072 29.6181 19.0572C29.3734 18.8071 29.0417 18.6667 28.6957 18.6667Z" fill="black" fill-opacity="0.8"/>
<path d="M11.087 16C10.2785 16.0009 9.49022 16.2578 8.8304 16.7353C8.17059 17.2128 7.67165 17.8875 7.40217 18.6667H1.30435C0.958413 18.6667 0.626647 18.8071 0.382034 19.0572C0.137422 19.3072 0 19.6464 0 20C0 20.3536 0.137422 20.6928 0.382034 20.9428C0.626647 21.1929 0.958413 21.3333 1.30435 21.3333H7.40217C7.64136 22.0249 8.06198 22.6359 8.61803 23.0996C9.17407 23.5632 9.84414 23.8617 10.5549 23.9622C11.2657 24.0628 11.9899 23.9616 12.6482 23.6698C13.3066 23.378 13.8737 22.9067 14.2877 22.3075C14.7017 21.7084 14.9465 21.0044 14.9954 20.2726C15.0443 19.5408 14.8954 18.8093 14.5649 18.1582C14.2345 17.507 13.7353 16.9613 13.1219 16.5807C12.5085 16.2 11.8045 15.9992 11.087 16ZM11.087 21.3333C10.829 21.3333 10.5768 21.2551 10.3623 21.1086C10.1478 20.9621 9.98061 20.7539 9.88189 20.5102C9.78317 20.2666 9.75734 19.9985 9.80767 19.7399C9.858 19.4812 9.98222 19.2437 10.1646 19.0572C10.3471 18.8707 10.5795 18.7437 10.8325 18.6923C11.0855 18.6408 11.3478 18.6672 11.5861 18.7682C11.8244 18.8691 12.0282 19.04 12.1715 19.2592C12.3148 19.4785 12.3913 19.7363 12.3913 20C12.3913 20.3536 12.2539 20.6928 12.0093 20.9428C11.7647 21.1929 11.4329 21.3333 11.087 21.3333Z" fill="black" fill-opacity="0.8"/>
</svg>
