<svg width="20" height="20" viewBox="0 0 20 20" fill="none" xmlns="http://www.w3.org/2000/svg">
<path d="M19.892 6.224C19.641 5.619 18.851 5.257 17.778 5.257C17.5705 5.25851 17.3632 5.27053 17.157 5.293C17.7127 4.88863 18.1194 4.31214 18.314 3.653C18.3624 3.38765 18.3419 3.11429 18.2544 2.85915C18.1668 2.60402 18.0152 2.37566 17.814 2.196C17.6319 1.99418 17.4013 1.84229 17.144 1.75477C16.8867 1.66726 16.6113 1.64702 16.344 1.696C15.685 1.88888 15.108 2.29338 14.702 2.847C14.7241 2.63972 14.7358 2.43145 14.737 2.223C14.737 1.15 14.376 0.359998 13.77 0.109998C13.544 0.02724 13.2981 0.0159531 13.0656 0.0776671C12.8331 0.139381 12.6251 0.271111 12.47 0.454998C12.305 0.618998 11.833 1.097 11.613 3.628C11.1203 3.48793 10.5961 3.50643 10.1145 3.68088C9.63301 3.85534 9.21857 4.17689 8.92996 4.6L0.878958 16.1C0.676682 16.3889 0.582649 16.7398 0.613372 17.0911C0.644095 17.4424 0.797611 17.7716 1.04696 18.021L1.98196 18.956C2.23133 19.2053 2.56058 19.3589 2.91189 19.3896C3.26319 19.4203 3.61409 19.3263 3.90296 19.124L15.403 11.073C15.8267 10.784 16.1484 10.3688 16.3224 9.88635C16.4964 9.4039 16.5137 8.87887 16.372 8.386C18.054 8.24 19.12 7.952 19.544 7.528C19.7289 7.37275 19.8616 7.16427 19.9239 6.93095C19.9861 6.69762 19.975 6.45077 19.892 6.224ZM16.536 2.678C16.6433 2.65968 16.7537 2.67094 16.8552 2.71058C16.9567 2.75022 17.0454 2.81674 17.112 2.903C17.1961 2.96821 17.2609 3.05499 17.2997 3.15412C17.3384 3.25326 17.3496 3.36103 17.332 3.466C17.177 4.281 15.532 5.307 14.352 5.866L14.136 5.65C14.693 4.471 15.718 2.833 16.536 2.678ZM13.182 1.161C13.287 1.061 13.366 1.022 13.394 1.033C13.503 1.078 13.742 1.44 13.742 2.222C13.6977 3.09913 13.5493 3.96788 13.3 4.81L12.751 4.261C12.701 4.211 12.642 4.176 12.588 4.131C12.723 2.139 13.021 1.322 13.182 1.161ZM3.32996 18.3C3.23361 18.3676 3.1165 18.399 2.99925 18.3888C2.882 18.3786 2.77212 18.3273 2.68896 18.244L1.75396 17.309C1.67149 17.2257 1.6209 17.1161 1.61103 16.9993C1.60116 16.8825 1.63263 16.7659 1.69996 16.67L3.20696 14.518L5.48196 16.8L3.32996 18.3ZM14.83 10.248L12.967 11.548L11.226 9.806C11.1322 9.71211 11.005 9.65931 10.8723 9.65922C10.7396 9.65913 10.6123 9.71174 10.5185 9.8055C10.4246 9.89925 10.3718 10.0265 10.3717 10.1591C10.3716 10.2918 10.4242 10.4191 10.518 10.513L12.136 12.131L9.63596 13.878L7.84996 12.092C7.75566 12.0009 7.62936 11.9505 7.49826 11.9517C7.36716 11.9528 7.24175 12.0054 7.14905 12.0981C7.05634 12.1908 7.00376 12.3162 7.00262 12.4473C7.00148 12.5784 7.05188 12.7047 7.14296 12.799L8.80896 14.466L6.30896 16.213L3.78696 13.686L7.86296 7.863L9.02996 9.03C9.07608 9.07775 9.13125 9.11584 9.19226 9.14205C9.25326 9.16825 9.31887 9.18205 9.38526 9.18262C9.45165 9.1832 9.51749 9.17055 9.57893 9.14541C9.64038 9.12027 9.69621 9.08314 9.74316 9.0362C9.7901 8.98925 9.82723 8.93342 9.85237 8.87197C9.87751 8.81053 9.89016 8.74469 9.88958 8.6783C9.88901 8.61191 9.87521 8.5463 9.84901 8.4853C9.8228 8.42429 9.78471 8.36912 9.73696 8.323L8.44596 7.031L9.74596 5.168C9.8715 4.98811 10.0352 4.83812 10.2253 4.72871C10.4154 4.6193 10.6273 4.55316 10.846 4.535C10.89 4.535 10.934 4.529 10.977 4.529C11.3745 4.52908 11.7558 4.68698 12.037 4.968L15.03 7.961C15.0641 7.99863 15.0958 8.03837 15.125 8.08C15.1531 8.17631 15.2104 8.26155 15.289 8.324C15.4637 8.64515 15.5134 9.01963 15.4285 9.37526C15.3436 9.73089 15.13 10.0425 14.829 10.25L14.83 10.248ZM18.838 6.816C18.675 6.978 17.856 7.276 15.869 7.416C15.824 7.362 15.788 7.303 15.738 7.253L15.189 6.704C16.0307 6.45208 16.8995 6.30168 17.777 6.256C18.559 6.256 18.921 6.496 18.967 6.605C18.978 6.631 18.944 6.712 18.839 6.818L18.838 6.816Z" fill="white"/>
</svg>
