<svg width="21" height="19" viewBox="0 0 21 19" fill="none" xmlns="http://www.w3.org/2000/svg">
<path d="M17.776 2.37499C15.9911 1.19888 13.89 0.595022 11.753 0.643995C6.333 0.643995 0.5 4.02599 0.5 11.452V13.452C0.5 17.222 3.305 18.979 5.2 18.979C6.26106 18.9226 7.28105 18.5503 8.129 17.91C8.81402 17.3825 9.63799 17.0663 10.5 17C10.758 17 11.1 17.032 11.5 17.069C13.311 17.236 16.341 17.513 18.4 15.636C19.8 14.363 20.5 12.298 20.5 9.5V7.49999C20.5094 6.48633 20.2651 5.48641 19.7894 4.59128C19.3136 3.69616 18.6215 2.93427 17.776 2.37499ZM11.753 1.64399C15.484 1.64399 19.5 3.47699 19.5 7.49999C19.5 10.005 18.9 11.821 17.723 12.9C15.992 14.481 13.344 14.237 11.589 14.076C11.154 14.036 10.782 14.003 10.5 14.003C9.44945 14.061 8.43992 14.4303 7.6 15.064C6.90657 15.5974 6.07237 15.9164 5.2 15.982C3.708 15.982 1.5 14.543 1.5 11.455C1.5 4.713 6.815 1.64399 11.753 1.64399ZM17.723 14.9C15.992 16.481 13.344 16.237 11.589 16.076C11.154 16.036 10.782 16.003 10.5 16.003C9.44945 16.061 8.43992 16.4303 7.6 17.064C6.90657 17.5974 6.07237 17.9164 5.2 17.982C4.43174 17.9207 3.69927 17.6314 3.0964 17.1513C2.49353 16.6712 2.04769 16.022 1.816 15.287C2.23035 15.7906 2.74546 16.2021 3.32824 16.4948C3.91102 16.7876 4.54859 16.9552 5.2 16.987C6.26106 16.9306 7.28105 16.5583 8.129 15.918C8.81309 15.3877 9.63714 15.0686 10.5 15C10.758 15 11.1 15.032 11.5 15.069C13.311 15.236 16.341 15.513 18.4 13.636C18.5882 13.4632 18.7631 13.2763 18.923 13.077C18.6687 13.769 18.258 14.3928 17.723 14.9Z" fill="white"/>
<path d="M5.20008 14.979C5.84737 14.9015 6.46028 14.6453 6.97008 14.239C7.99746 13.4843 9.22643 13.053 10.5001 13C10.8121 13 11.2221 13.034 11.7181 13.08C12.2801 13.131 12.9181 13.189 13.5791 13.189C14.7246 13.2761 15.8649 12.9638 16.8061 12.305C17.8561 11.446 18.3891 9.82999 18.3891 7.50499C18.3891 4.16899 14.9491 2.64899 11.7531 2.64899C11.161 2.65344 10.5703 2.70696 9.98708 2.80899H9.96808C6.65908 3.37899 2.61108 5.61599 2.61108 11.454C2.61108 14.091 4.38908 14.979 5.20008 14.979ZM6.44108 5.32199C6.05208 6.37699 5.55008 7.75299 5.35508 8.34299C5.33229 8.40584 5.32234 8.47262 5.32581 8.53938C5.32928 8.60614 5.3461 8.67153 5.37528 8.73168C5.40446 8.79183 5.44541 8.84552 5.4957 8.88956C5.54599 8.93361 5.6046 8.96713 5.66807 8.98813C5.73154 9.00913 5.79858 9.01719 5.86521 9.01183C5.93185 9.00647 5.99674 8.9878 6.05604 8.95693C6.11533 8.92605 6.16784 8.8836 6.21044 8.83208C6.25305 8.78057 6.28489 8.72103 6.30408 8.65699C6.58208 7.81499 7.53708 5.23999 7.80408 4.50999C8.26347 4.29764 8.73979 4.12404 9.22808 3.99099L8.02808 7.33099C7.98336 7.45552 7.98982 7.5927 8.04606 7.71247C8.10229 7.83225 8.2037 7.92485 8.32808 7.96999C8.3831 7.99044 8.4414 8.00061 8.50008 7.99999C8.60296 7.99987 8.7033 7.96802 8.78741 7.90878C8.87152 7.84955 8.93531 7.76581 8.97008 7.66899L10.3811 3.75299C10.8351 3.68282 11.2937 3.64638 11.7531 3.64399C14.4671 3.64399 17.3891 4.85099 17.3891 7.49999C17.3891 9.51499 16.9801 10.871 16.1731 11.53C15.408 12.037 14.4934 12.2694 13.5791 12.189C12.9621 12.189 12.3501 12.133 11.7931 12.083C11.2771 12.035 10.8351 12 10.5001 12C9.03901 12.0496 7.62587 12.5336 6.44108 13.39C6.07781 13.6785 5.65329 13.88 5.20008 13.979C5.18408 13.979 3.61108 13.779 3.61108 11.452C3.54456 10.2766 3.76785 9.10281 4.26132 8.03392C4.75479 6.96503 5.50331 6.03376 6.44108 5.32199Z" fill="white"/>
<path d="M14 10C14.3956 10 14.7822 9.8827 15.1111 9.66294C15.44 9.44318 15.6964 9.13082 15.8478 8.76537C15.9991 8.39992 16.0387 7.99778 15.9616 7.60982C15.8844 7.22186 15.6939 6.86549 15.4142 6.58579C15.1345 6.30608 14.7781 6.1156 14.3902 6.03843C14.0022 5.96126 13.6001 6.00087 13.2346 6.15224C12.8692 6.30362 12.5568 6.55996 12.3371 6.88886C12.1173 7.21776 12 7.60444 12 8C12 8.53043 12.2107 9.03914 12.5858 9.41421C12.9609 9.78929 13.4696 10 14 10ZM14 7C14.1978 7 14.3911 7.05865 14.5556 7.16853C14.72 7.27841 14.8482 7.43459 14.9239 7.61732C14.9996 7.80004 15.0194 8.00111 14.9808 8.19509C14.9422 8.38907 14.847 8.56726 14.7071 8.70711C14.5673 8.84696 14.3891 8.9422 14.1951 8.98079C14.0011 9.01937 13.8 8.99957 13.6173 8.92388C13.4346 8.84819 13.2784 8.72002 13.1685 8.55557C13.0586 8.39112 13 8.19778 13 8C13 7.73478 13.1054 7.48043 13.2929 7.29289C13.4804 7.10536 13.7348 7 14 7Z" fill="white"/>
</svg>
