<svg width="27" height="26" viewBox="0 0 27 26" fill="none" xmlns="http://www.w3.org/2000/svg">
<path fill-rule="evenodd" clip-rule="evenodd" d="M6.55777 1.39826C1.89768 2.89142 -0.180881 7.95455 1.38149 12.7847C2.17431 15.0591 3.46369 17.1033 5.15772 18.7805C7.48166 21.0267 10.0347 23.0035 12.7793 24.6831L13.0909 24.8688C13.3894 25.0466 13.7628 25.0435 14.0583 24.8607L14.3492 24.6807C17.09 23.0035 19.643 21.0267 21.959 18.7883C23.661 17.1033 24.9504 15.0591 25.7366 12.8044C27.3046 7.95749 25.2175 2.89195 20.556 1.39834L20.2188 1.2984C18.0815 0.713373 15.8103 1.00164 13.8957 2.08044L13.5554 2.28121L13.2211 2.08156C11.2017 0.941187 8.78818 0.68425 6.55777 1.39826ZM12.7662 3.97383L13.0159 4.15207C13.3451 4.38669 13.7892 4.38202 14.1133 4.14055C15.8014 2.88283 17.9861 2.51684 19.9874 3.15583C23.5991 4.31308 25.2428 8.30228 23.9758 12.2194C23.2885 14.1896 22.1509 15.9932 20.657 17.4722L19.9868 18.1058C18.1812 19.7758 16.2285 21.2875 14.1553 22.6197L13.5615 22.9914L13.7427 23.1051C11.1236 21.5021 8.67813 19.6087 6.4596 17.4644C4.97363 15.9932 3.83604 14.1896 3.14216 12.1996C1.88055 8.29855 3.51708 4.31216 7.12686 3.15554C9.03296 2.54535 11.111 2.84788 12.7662 3.97383ZM18.4719 6.03205C17.9835 5.87692 17.4611 6.14484 17.3051 6.63047C17.1491 7.11609 17.4186 7.63553 17.9069 7.79065C18.8668 8.09555 19.5511 8.95536 19.6368 9.96958C19.6798 10.4776 20.1288 10.8548 20.6396 10.8121C21.1505 10.7694 21.5298 10.3229 21.4869 9.81493C21.3385 8.05922 20.1491 6.56481 18.4719 6.03205Z" fill="#949494"/>
<path d="M1.38149 12.7847L0.905633 12.9386L0.909348 12.9492L1.38149 12.7847ZM6.55777 1.39826L6.40533 0.922068L6.40521 0.922107L6.55777 1.39826ZM5.15772 18.7805L4.80592 19.1358L4.81023 19.14L5.15772 18.7805ZM12.7793 24.6831L12.5182 25.1096L12.5233 25.1126L12.7793 24.6831ZM13.0909 24.8688L12.835 25.2983L12.8351 25.2984L13.0909 24.8688ZM14.0583 24.8607L13.7952 24.4355L13.7952 24.4355L14.0583 24.8607ZM14.3492 24.6807L14.0882 24.2543L14.0862 24.2555L14.3492 24.6807ZM21.959 18.7883L22.3065 19.1478L22.3108 19.1436L21.959 18.7883ZM25.7366 12.8044L26.2088 12.9691L26.2123 12.9583L25.7366 12.8044ZM20.556 1.39834L20.7086 0.922067L20.698 0.918947L20.556 1.39834ZM20.2188 1.2984L20.3609 0.818903L20.3508 0.816138L20.2188 1.2984ZM13.8957 2.08044L13.6502 1.64474L13.6417 1.6498L13.8957 2.08044ZM13.5554 2.28121L13.299 2.71049L13.5538 2.86266L13.8095 2.71185L13.5554 2.28121ZM13.2211 2.08156L13.4775 1.65216L13.4669 1.64618L13.2211 2.08156ZM13.0159 4.15207L12.7254 4.55903L12.7257 4.55924L13.0159 4.15207ZM12.7662 3.97383L13.0568 3.56678L13.0474 3.56042L12.7662 3.97383ZM14.1133 4.14055L13.8146 3.7396V3.7396L14.1133 4.14055ZM19.9874 3.15583L20.14 2.67968L20.1395 2.67952L19.9874 3.15583ZM23.9758 12.2194L24.448 12.3841L24.4515 12.3733L23.9758 12.2194ZM20.657 17.4722L21.0006 17.8357L21.0088 17.8275L20.657 17.4722ZM19.9868 18.1058L20.3263 18.4729L20.3303 18.4692L19.9868 18.1058ZM14.1553 22.6197L14.4206 23.0436L14.4256 23.0404L14.1553 22.6197ZM13.5615 22.9914L13.2962 22.5676L12.6199 22.9909L13.2958 23.415L13.5615 22.9914ZM13.7427 23.1051L13.4817 23.5315L14.0084 22.6815L13.7427 23.1051ZM6.4596 17.4644L6.10779 17.8198L6.11212 17.824L6.4596 17.4644ZM3.14216 12.1996L2.66629 12.3535L2.67004 12.3642L3.14216 12.1996ZM7.12686 3.15554L6.97442 2.67934L6.9743 2.67938L7.12686 3.15554ZM17.3051 6.63047L16.8291 6.47754L17.3051 6.63047ZM18.4719 6.03205L18.6232 5.55551L18.4719 6.03205ZM17.9069 7.79065L17.7556 8.26719L17.9069 7.79065ZM19.6368 9.96958L20.1351 9.92746V9.92746L19.6368 9.96958ZM20.6396 10.8121L20.598 10.3138L20.6396 10.8121ZM21.4869 9.81493L20.9887 9.85705L21.4869 9.81493ZM1.85722 12.6308C0.3625 8.00981 2.36482 3.26678 6.71034 1.87442L6.40521 0.922107C1.43054 2.51606 -0.724262 7.89929 0.905754 12.9385L1.85722 12.6308ZM5.50951 18.4252C3.86993 16.8019 2.62153 14.823 1.85362 12.6201L0.909348 12.9492C1.72709 15.2951 3.05745 17.4047 4.80594 19.1358L5.50951 18.4252ZM13.0402 24.2566C10.327 22.5961 7.80292 20.6419 5.50522 18.421L4.81023 19.14C7.16039 21.4116 9.74247 23.4108 12.5183 25.1095L13.0402 24.2566ZM13.3469 24.4393L13.0352 24.2535L12.5233 25.1126L12.835 25.2983L13.3469 24.4393ZM13.7952 24.4355C13.6584 24.5201 13.4851 24.5216 13.3468 24.4392L12.8351 25.2984C13.2938 25.5716 13.8672 25.5668 14.3213 25.2859L13.7952 24.4355ZM14.0862 24.2555L13.7952 24.4355L14.3213 25.286L14.6122 25.106L14.0862 24.2555ZM21.6115 18.4288C19.3218 20.6418 16.7977 22.5961 14.0882 24.2543L14.6102 25.1072C17.3822 23.4108 19.9643 21.4116 22.3065 19.1478L21.6115 18.4288ZM25.2644 12.6398C24.5033 14.8225 23.2551 16.8015 21.6072 18.433L22.3108 19.1436C24.0669 17.4051 25.3974 15.2956 26.2087 12.969L25.2644 12.6398ZM20.4034 1.87449C24.7505 3.26736 26.7612 8.0129 25.2608 12.6505L26.2123 12.9583C27.8481 7.90207 25.6845 2.51655 20.7085 0.922181L20.4034 1.87449ZM20.0767 1.77779L20.4139 1.87773L20.698 0.918947L20.3608 0.819008L20.0767 1.77779ZM14.1412 2.51605C15.9416 1.50159 18.0772 1.23059 20.0867 1.78066L20.3508 0.816138C18.0858 0.19616 15.679 0.501701 13.6503 1.64483L14.1412 2.51605ZM13.8095 2.71185L14.1498 2.51108L13.6417 1.6498L13.3013 1.85057L13.8095 2.71185ZM12.9647 2.51083L13.299 2.71049L13.8118 1.85194L13.4775 1.65228L12.9647 2.51083ZM6.71022 1.87446C8.80721 1.20315 11.0764 1.44466 12.9752 2.51694L13.4669 1.64618C11.3269 0.437712 8.76915 0.165346 6.40533 0.922068L6.71022 1.87446ZM13.3064 3.74512L13.0567 3.56688L12.4757 4.38079L12.7254 4.55903L13.3064 3.74512ZM13.8146 3.7396C13.6646 3.85131 13.4585 3.85351 13.3061 3.74491L12.7257 4.55924C13.2317 4.91986 13.9137 4.91273 14.412 4.5415L13.8146 3.7396ZM20.1395 2.67952C17.9842 1.99138 15.6317 2.38572 13.8146 3.7396L14.412 4.5415C15.9711 3.37995 17.9879 3.0423 19.8353 3.63214L20.1395 2.67952ZM24.4515 12.3733C25.7837 8.25467 24.073 3.93988 20.14 2.67968L19.8349 3.63199C23.1252 4.68628 24.7019 8.34989 23.5 12.0655L24.4515 12.3733ZM21.0088 17.8275C22.5567 16.2951 23.7355 14.4263 24.4479 12.384L23.5037 12.0547C22.8415 13.9529 21.7452 15.6913 20.3052 17.1169L21.0088 17.8275ZM20.3303 18.4692L21.0005 17.8356L20.3135 17.1089L19.6433 17.7425L20.3303 18.4692ZM14.4256 23.0404C16.5234 21.6924 18.4992 20.1627 20.3263 18.4729L19.6473 17.7388C17.8632 19.3889 15.9337 20.8827 13.885 22.1991L14.4256 23.0404ZM13.8268 23.4152L14.4206 23.0435L13.8901 22.1959L13.2962 22.5676L13.8268 23.4152ZM14.0084 22.6815L13.8272 22.5678L13.2958 23.415L13.477 23.5286L14.0084 22.6815ZM6.11212 17.824C8.35687 19.9936 10.8313 21.9095 13.4817 23.5315L14.0037 22.6786C11.4159 21.0948 8.9994 19.2239 6.80709 17.1049L6.11212 17.824ZM2.67004 12.3642C3.38886 14.4257 4.56747 16.2946 6.10781 17.8198L6.8114 17.1091C5.3798 15.6917 4.28322 13.9534 3.61428 12.035L2.67004 12.3642ZM6.9743 2.67938C3.04311 3.93899 1.33968 8.25102 2.66642 12.3535L3.6179 12.0458C2.42142 8.34609 3.99104 4.68534 7.27943 3.63169L6.9743 2.67938ZM13.0474 3.56042C11.2653 2.34813 9.02736 2.02214 6.97442 2.67934L7.2793 3.63173C9.03856 3.06855 10.9567 3.34763 12.485 4.38725L13.0474 3.56042ZM17.7812 6.78339C17.8523 6.56211 18.0927 6.43621 18.3205 6.50858L18.6232 5.55551C17.8743 5.31762 17.07 5.72757 16.8291 6.47754L17.7812 6.78339ZM18.0583 7.31412C17.8317 7.24213 17.7105 7.00344 17.7812 6.78339L16.8291 6.47754C16.5878 7.22875 17.0055 8.02893 17.7556 8.26719L18.0583 7.31412ZM20.1351 9.92746C20.0324 8.71352 19.2129 7.68087 18.0583 7.31412L17.7556 8.26719C18.5207 8.51024 19.0698 9.1972 19.1386 10.0117L20.1351 9.92746ZM20.598 10.3138C20.3595 10.3338 20.1546 10.1579 20.1351 9.92746L19.1386 10.0117C19.205 10.7973 19.898 11.3758 20.6813 11.3104L20.598 10.3138ZM20.9887 9.85705C21.0081 10.0871 20.8361 10.2939 20.598 10.3138L20.6813 11.3104C21.4649 11.2448 22.0515 10.5588 21.9851 9.77281L20.9887 9.85705ZM18.3205 6.50858C19.804 6.97982 20.8572 8.30215 20.9887 9.85705L21.9851 9.77281C21.8197 7.8163 20.4941 6.1498 18.6232 5.55551L18.3205 6.50858Z" fill="#949494"/>
</svg>
