<svg width="25" height="24" viewBox="0 0 25 24" fill="none" xmlns="http://www.w3.org/2000/svg">
<path fill-rule="evenodd" clip-rule="evenodd" d="M5.29703 6.11077C0.369135 11.0889 -0.519189 12.384 0.237418 13.4825C1.00857 14.6022 1.35242 14.6178 2.38548 13.5775C3.06244 12.8963 5.5888 10.3523 8.0003 7.92369C10.4183 5.48811 14.3558 5.48298 16.7802 7.91225L17.9403 9.07477C22.1767 13.32 23.7343 14.4046 24.4986 13.6403C25.3019 12.8363 25.1151 12.1523 23.5567 10.1917C22.1063 8.36677 21.6123 6.76154 21.6123 3.87231C21.6123 0.35723 21.4354 0 19.6978 0C18.2941 0 17.7833 0.492 17.7833 1.84615C17.7833 4.19354 16.8652 4.19354 15.1031 1.84615C14.3411 0.830769 13.1671 0.0156923 12.4955 0.036C11.8239 0.0553846 8.5846 2.78954 5.29703 6.11077ZM7.92831 10.2323C4.0687 13.9366 3.99901 14.0917 3.99901 19.0015V20.9368C3.99901 22.6286 5.37044 24 7.06219 24C10.0526 24 10.1254 23.9234 10.1254 20.7692C10.1254 17.7951 10.3076 17.5385 12.4228 17.5385C14.5379 17.5385 14.7202 17.7951 14.7202 20.7692C14.7202 23.9234 14.7929 24 17.7833 24C19.4751 24 20.8465 22.6286 20.8465 20.9368V19.1538C20.8458 14.4923 20.7018 14.1582 17.0666 10.3846C14.9882 8.22646 12.9657 6.46154 12.5721 6.46154C12.1785 6.46154 10.0886 8.15815 7.92831 10.2323Z" fill="#949494"/>
</svg>
