<svg width="26" height="24" viewBox="0 0 26 24" fill="none" xmlns="http://www.w3.org/2000/svg">
<path fill-rule="evenodd" clip-rule="evenodd" d="M5.98502 6.11077C1.05712 11.0889 0.1688 12.384 0.925406 13.4825C1.69656 14.6022 2.04041 14.6178 3.07346 13.5775C3.75043 12.8963 6.27679 10.3523 8.68828 7.92369C11.1063 5.48811 15.0438 5.48298 17.4681 7.91225L18.6283 9.07477C22.8647 13.32 24.4223 14.4046 25.1866 13.6403C25.9899 12.8363 25.8031 12.1523 24.2447 10.1917C22.7943 8.36677 22.3003 6.76154 22.3003 3.87231C22.3003 0.35723 22.1234 0 20.3858 0C18.9821 0 18.4713 0.492 18.4713 1.84615C18.4713 4.19354 17.5531 4.19354 15.791 1.84615C15.0291 0.830769 13.8551 0.0156923 13.1835 0.036C12.5119 0.0553846 9.27259 2.78954 5.98502 6.11077ZM8.6163 10.2323C4.75668 13.9366 4.687 14.0917 4.687 19.0015V20.9368C4.687 22.6286 6.05843 24 7.75018 24C10.7406 24 10.8134 23.9234 10.8134 20.7692C10.8134 17.7951 10.9956 17.5385 13.1108 17.5385C15.2259 17.5385 15.4081 17.7951 15.4081 20.7692C15.4081 23.9234 15.4809 24 18.4713 24C20.1631 24 21.5345 22.6286 21.5345 20.9368V19.1538C21.5338 14.4923 21.3898 14.1582 17.7545 10.3846C15.6762 8.22646 13.6537 6.46154 13.2601 6.46154C12.8665 6.46154 10.7766 8.15815 8.6163 10.2323Z" fill="#C98848"/>
</svg>
