<svg width="42" height="41" viewBox="0 0 42 41" fill="none" xmlns="http://www.w3.org/2000/svg">
<path fill-rule="evenodd" clip-rule="evenodd" d="M18.6261 1.107C17.5861 0.753807 16.4376 1.3034 16.0557 2.33709L13.9056 8.15664H16.0336L17.9425 2.98996L39.2583 10.229L35.8492 19.456V25.2157L41.1451 10.8818C41.5301 9.83973 40.9903 8.70206 39.9418 8.34599L18.6261 1.107ZM29.5093 31.9588V29.8438L27.8409 29.2772V31.3922L29.5093 31.9588ZM11.0688 15.8346H13.1969L13.7879 14.235H11.6598L11.0688 15.8346Z" fill="#BBBBBB"/>
<path d="M16.0557 2.33709L16.5247 2.51038V2.51038L16.0557 2.33709ZM18.6261 1.107L18.7869 0.633561L18.6261 1.107ZM13.9056 8.15664L13.4366 7.98336L13.1878 8.65664H13.9056V8.15664ZM16.0336 8.15664V8.65664H16.3819L16.5026 8.32992L16.0336 8.15664ZM17.9425 2.98996L18.1033 2.51652L17.6423 2.35994L17.4735 2.81668L17.9425 2.98996ZM39.2583 10.229L39.7273 10.4022L39.9053 9.92061L39.4191 9.75551L39.2583 10.229ZM35.8492 19.456L35.3802 19.2827L35.3492 19.3666V19.456H35.8492ZM35.8492 25.2157H35.3492L36.3182 25.389L35.8492 25.2157ZM41.1451 10.8818L41.6141 11.0551V11.0551L41.1451 10.8818ZM39.9418 8.34599L39.7811 8.81944L39.9418 8.34599ZM29.5093 29.8438H30.0093V29.4855L29.67 29.3703L29.5093 29.8438ZM29.5093 31.9588L29.3485 32.4323L30.0093 32.6567V31.9588H29.5093ZM27.8409 29.2772L28.0017 28.8037L27.3409 28.5793V29.2772H27.8409ZM27.8409 31.3922H27.3409V31.7505L27.6801 31.8657L27.8409 31.3922ZM13.1969 15.8346V16.3346H13.5452L13.6659 16.0079L13.1969 15.8346ZM11.0688 15.8346L10.5998 15.6613L10.3511 16.3346H11.0688V15.8346ZM13.7879 14.235L14.2569 14.4083L14.5056 13.735H13.7879V14.235ZM11.6598 14.235V13.735H11.3115L11.1908 14.0618L11.6598 14.235ZM16.5247 2.51038C16.8133 1.72947 17.6833 1.31487 18.4653 1.58045L18.7869 0.633561C17.4888 0.192745 16.062 0.877339 15.5867 2.16381L16.5247 2.51038ZM14.3746 8.32992L16.5247 2.51038L15.5867 2.16381L13.4366 7.98336L14.3746 8.32992ZM13.9056 8.65664H16.0336V7.65664H13.9056V8.65664ZM17.4735 2.81668L15.5646 7.98336L16.5026 8.32992L18.4116 3.16324L17.4735 2.81668ZM39.4191 9.75551L18.1033 2.51652L17.7818 3.4634L39.0975 10.7024L39.4191 9.75551ZM36.3182 19.6293L39.7273 10.4022L38.7893 10.0557L35.3802 19.2827L36.3182 19.6293ZM35.3492 19.456V25.2157H36.3492V19.456H35.3492ZM40.6761 10.7085L35.3802 25.0424L36.3182 25.389L41.6141 11.0551L40.6761 10.7085ZM39.7811 8.81944C40.5616 9.08451 40.9642 9.92883 40.6761 10.7085L41.6141 11.0551C42.0961 9.75064 41.419 8.3196 40.1026 7.87255L39.7811 8.81944ZM18.4653 1.58045L39.7811 8.81944L40.1026 7.87255L18.7869 0.633561L18.4653 1.58045ZM29.0093 29.8438V31.9588H30.0093V29.8438H29.0093ZM27.6801 29.7506L29.3485 30.3172L29.67 29.3703L28.0017 28.8037L27.6801 29.7506ZM28.3409 31.3922V29.2772H27.3409V31.3922H28.3409ZM29.67 31.4854L28.0017 30.9188L27.6801 31.8657L29.3485 32.4323L29.67 31.4854ZM13.1969 15.3346H11.0688V16.3346H13.1969V15.3346ZM13.3189 14.0618L12.7279 15.6613L13.6659 16.0079L14.2569 14.4083L13.3189 14.0618ZM11.6598 14.735H13.7879V13.735H11.6598V14.735ZM11.5379 16.0079L12.1289 14.4083L11.1908 14.0618L10.5998 15.6613L11.5379 16.0079Z" fill="#8F959E"/>
<path d="M2 31.0162V14.0415C2 13.4892 2.44772 13.0415 3 13.0415H27.0273C27.5796 13.0415 28.0273 13.4892 28.0273 14.0415V20.0317M2 31.0162V38.005C2 38.5573 2.44772 39.005 3 39.005H27.0273C27.5796 39.005 28.0273 38.5573 28.0273 38.005V20.0317M2 31.0162L9.25351 23.7805C9.66236 23.3726 10.3307 23.3949 10.7115 23.8291L16.3126 30.2146C16.6934 30.6488 17.3618 30.671 17.7706 30.2632L28.0273 20.0317" stroke="#BBBBBB" stroke-width="3"/>
</svg>
