<svg width="19" height="25" viewBox="0 0 19 25" fill="none" xmlns="http://www.w3.org/2000/svg">
<path d="M17.0324 10.0023H13.4103H6.16599V7.20228C6.16599 5.10228 7.5243 3.20228 9.42592 3.00228C11.5992 2.80228 13.4103 4.70228 13.4103 7.00228C13.4103 7.60228 13.7725 8.00228 14.3158 8.00228H15.2213C15.7647 8.00228 16.1269 7.60228 16.1269 7.00228C16.1269 3.20228 13.4103 0.102282 9.96924 0.00228185C6.43765 -0.0977181 3.44939 3.10228 3.44939 7.00228V10.0023H2.54386C1.54777 10.0023 0.732788 10.9023 0.732788 12.0023V19.0023C0.732788 21.8023 2.72496 24.0023 5.26046 24.0023H14.3158C16.8513 24.0023 18.8435 21.8023 18.8435 19.0023V12.0023C18.8435 10.9023 18.0285 10.0023 17.0324 10.0023ZM10.6937 17.7023V19.0023C10.6937 19.5023 10.2409 20.0023 9.78813 20.0023C9.33536 20.0023 8.8826 19.5023 8.8826 19.0023V17.7023C8.33928 17.4023 7.97706 16.7023 7.97706 16.0023C7.97706 14.9023 8.79204 14.0023 9.78813 14.0023C10.7842 14.0023 11.5992 14.9023 11.5992 16.0023C11.5992 16.7023 11.237 17.4023 10.6937 17.7023Z" fill="white"/>
</svg>
