<svg width="85" height="58" viewBox="0 0 85 58" fill="none" xmlns="http://www.w3.org/2000/svg">
<path d="M77 0H8C3.58172 0 0 3.58172 0 8V50C0 54.4183 3.58172 58 8 58H77C81.4183 58 85 54.4183 85 50V8C85 3.58172 81.4183 0 77 0Z" fill="#101225"/>
<path d="M66 50C68.7614 50 71 47.7614 71 45C71 42.2386 68.7614 40 66 40C63.2386 40 61 42.2386 61 45C61 47.7614 63.2386 50 66 50Z" fill="#FBB734"/>
<path d="M71 50C73.7614 50 76 47.7614 76 45C76 42.2386 73.7614 40 71 40C68.2386 40 66 42.2386 66 45C66 47.7614 68.2386 50 71 50Z" fill="#FF5E5E"/>
<path d="M10.7378 10.3636V12.7109C10.7378 13.2045 10.3969 13.5597 9.84295 13.5597C9.29075 13.5597 8.94806 13.2045 8.94806 12.7109V10.3636H8.39941V12.7553C8.39941 13.5188 8.97115 14.0604 9.84295 14.0604C10.7147 14.0604 11.2883 13.5188 11.2883 12.7553V10.3636H10.7378ZM12.5742 12.3807C12.5742 11.9457 12.8405 11.6971 13.2099 11.6971C13.5703 11.6971 13.7887 11.9332 13.7887 12.3292V14H14.3196V12.2653C14.3196 11.5906 13.9485 11.2372 13.391 11.2372C12.9808 11.2372 12.7127 11.4272 12.5866 11.7166H12.5529V11.2727H12.0433V14H12.5742V12.3807ZM15.0316 14H15.5625V11.2727H15.0316V14ZM15.2997 10.8519C15.4826 10.8519 15.6353 10.7099 15.6353 10.5359C15.6353 10.3619 15.4826 10.218 15.2997 10.218C15.115 10.218 14.9641 10.3619 14.9641 10.5359C14.9641 10.7099 15.115 10.8519 15.2997 10.8519ZM17.5498 11.2727H16.9905V10.6193H16.4596V11.2727H16.0601V11.6989H16.4596V13.3093C16.4578 13.8047 16.836 14.0444 17.255 14.0355C17.4237 14.0337 17.5374 14.0018 17.5995 13.9787L17.5036 13.5401C17.4681 13.5472 17.4024 13.5632 17.3172 13.5632C17.145 13.5632 16.9905 13.5064 16.9905 13.1992V11.6989H17.5498V11.2727ZM19.2832 14.055C19.878 14.055 20.2988 13.7621 20.4196 13.3182L19.9171 13.2276C19.8212 13.4851 19.5904 13.6165 19.2885 13.6165C18.834 13.6165 18.5286 13.3217 18.5144 12.7962H20.4533V12.608C20.4533 11.6225 19.8638 11.2372 19.2459 11.2372C18.486 11.2372 17.9853 11.8161 17.9853 12.6541C17.9853 13.5011 18.4789 14.055 19.2832 14.055ZM18.5161 12.3984C18.5375 12.0114 18.818 11.6758 19.2495 11.6758C19.6614 11.6758 19.9313 11.9812 19.933 12.3984H18.5161ZM22.0633 14.0533C22.5604 14.0533 22.7558 13.7496 22.8516 13.5756H22.896V14H23.4145V10.3636H22.8836V11.7148H22.8516C22.7558 11.5462 22.5747 11.2372 22.0668 11.2372C21.4081 11.2372 20.9234 11.7575 20.9234 12.6417C20.9234 13.5241 21.401 14.0533 22.0633 14.0533ZM22.1805 13.6005C21.7064 13.6005 21.4596 13.1832 21.4596 12.6364C21.4596 12.0948 21.7011 11.6882 22.1805 11.6882C22.6439 11.6882 22.8925 12.0664 22.8925 12.6364C22.8925 13.2099 22.6386 13.6005 22.1805 13.6005ZM25.5381 14H26.9319C27.7771 14 28.1588 13.5792 28.1588 13.0217C28.1588 12.4588 27.7646 12.141 27.4042 12.1214V12.0859C27.738 12.0007 28.0168 11.7734 28.0168 11.3189C28.0168 10.7809 27.6439 10.3636 26.8698 10.3636H25.5381V14ZM26.0867 13.5295V12.3647H26.8982C27.3385 12.3647 27.6137 12.6488 27.6137 12.995C27.6137 13.3004 27.406 13.5295 26.8786 13.5295H26.0867ZM26.0867 11.9368V10.8306H26.836C27.271 10.8306 27.4788 11.0597 27.4788 11.3615C27.4788 11.7131 27.1911 11.9368 26.8218 11.9368H26.0867ZM29.7879 14.0533C30.2851 14.0533 30.4804 13.7496 30.5762 13.5756H30.6206V14H31.1391V11.2727H30.6082V11.7148H30.5762C30.4804 11.5462 30.2993 11.2372 29.7914 11.2372C29.1327 11.2372 28.648 11.7575 28.648 12.6417C28.648 13.5241 29.1256 14.0533 29.7879 14.0533ZM29.9051 13.6005C29.431 13.6005 29.1842 13.1832 29.1842 12.6364C29.1842 12.0948 29.4257 11.6882 29.9051 11.6882C30.3685 11.6882 30.6171 12.0664 30.6171 12.6364C30.6171 13.2099 30.3632 13.6005 29.9051 13.6005ZM32.4277 12.3807C32.4277 11.9457 32.6941 11.6971 33.0634 11.6971C33.4238 11.6971 33.6422 11.9332 33.6422 12.3292V14H34.1731V12.2653C34.1731 11.5906 33.802 11.2372 33.2445 11.2372C32.8343 11.2372 32.5662 11.4272 32.4402 11.7166H32.4064V11.2727H31.8968V14H32.4277V12.3807ZM34.8851 14H35.416V13.0323L35.6806 12.7678L36.6074 14H37.259L36.0801 12.4428L37.1845 11.2727H36.5488L35.4622 12.4268H35.416V10.3636H34.8851V14Z" fill="white"/>
<path d="M74.4362 14.4546H74.8553L74.8588 14.0445C75.6276 13.9859 76.0733 13.5775 76.0751 12.9614C76.0733 12.3559 75.617 12.0345 74.9849 11.8925L74.8801 11.8676L74.8872 10.9799C75.1234 11.0349 75.2672 11.1858 75.2885 11.4095H76.0254C76.0165 10.8218 75.5779 10.401 74.8943 10.3264L74.8979 9.90918H74.4788L74.4753 10.3229C73.781 10.3904 73.291 10.8094 73.2945 11.4149C73.2928 11.9511 73.671 12.2583 74.2853 12.4056L74.4558 12.4483L74.4469 13.3875C74.1575 13.3325 73.9622 13.1549 73.9426 12.8584H73.1987C73.2164 13.5757 73.6869 13.977 74.4398 14.0427L74.4362 14.4546ZM74.8659 13.3875L74.873 12.5583C75.1482 12.6453 75.2974 12.7572 75.2992 12.9596C75.2974 13.1745 75.134 13.3343 74.8659 13.3875ZM74.4611 11.7593C74.2391 11.683 74.0793 11.5676 74.0829 11.3634C74.0829 11.1734 74.2178 11.026 74.4682 10.9745L74.4611 11.7593Z" fill="white"/>
<path d="M9.23975 47.3609H10.9851V48.0001H11.7077V47.3609H12.1712V46.7448H11.7077V45.7274H11.0064V46.7448H10.0121V46.7164L11.3384 44.3637H10.598L9.23975 46.7554V47.3609ZM12.6266 46.972C12.6479 47.6184 13.2108 48.0498 14.0098 48.0498C14.8105 48.0498 15.4107 47.6113 15.4107 46.9649C15.4107 46.4802 15.0733 46.0079 14.3081 45.9333V45.9049L15.2846 44.9177V44.3637H12.8095V44.9923H14.34V45.0171L13.5339 45.8552V46.3897H13.9263C14.3773 46.3897 14.6099 46.6134 14.6099 46.9135C14.6099 47.2242 14.3631 47.4159 14.0115 47.4159C13.6813 47.4159 13.4221 47.2455 13.4025 46.972H12.6266ZM17.2928 48.0498C18.1025 48.0498 18.6529 47.5225 18.6511 46.7874C18.6529 46.0914 18.1664 45.5907 17.5112 45.5907C17.1916 45.5907 16.9164 45.7238 16.7885 45.9032H16.7672L16.8613 44.9923H18.4505V44.3637H16.2275L16.0552 46.2813L16.7388 46.4039C16.8507 46.2529 17.0673 46.1588 17.2821 46.1588C17.6479 46.1606 17.9107 46.4252 17.9107 46.8069C17.9107 47.1851 17.6532 47.4461 17.2928 47.4461C16.9874 47.4461 16.7406 47.2544 16.7228 46.972H15.9771C15.9913 47.6006 16.54 48.0498 17.2928 48.0498ZM19.1873 48.0001H21.7797V47.3715H20.2527V47.3467L20.7836 46.8264C21.5311 46.1446 21.7317 45.8037 21.7317 45.39C21.7317 44.7597 21.2168 44.314 20.4373 44.314C19.6738 44.314 19.15 44.7703 19.1518 45.4841H19.8816C19.8798 45.1361 20.1 44.923 20.432 44.923C20.7516 44.923 20.9895 45.1219 20.9895 45.4415C20.9895 45.7309 20.812 45.9298 20.4817 46.2476L19.1873 47.4461V48.0001Z" fill="white"/>
<path d="M19 20H10C8.89543 20 8 20.8954 8 22V29C8 30.1046 8.89543 31 10 31H19C20.1046 31 21 30.1046 21 29V22C21 20.8954 20.1046 20 19 20Z" fill="#EBF2FA"/>
</svg>
