<svg width="46" height="46" viewBox="0 0 46 46" fill="none" xmlns="http://www.w3.org/2000/svg">
<g filter="url(#filter0_b_21_13359)">
<circle cx="23" cy="23" r="23" fill="white" fill-opacity="0.5"/>
</g>
<g clip-path="url(#clip0_21_13359)">
<path d="M31.7958 25.3854L30.2125 19.6887C29.7484 18.0198 28.7398 16.5539 27.3469 15.5241C25.9541 14.4942 24.257 13.9595 22.5254 14.0049C20.7938 14.0503 19.127 14.6732 17.79 15.7747C16.4531 16.8761 15.5227 18.3928 15.1467 20.0837L13.9208 25.5962C13.7854 26.2053 13.7885 26.8371 13.93 27.4448C14.0714 28.0525 14.3475 28.6208 14.738 29.1075C15.1284 29.5942 15.6232 29.9871 16.1857 30.257C16.7483 30.5269 17.3643 30.6671 17.9883 30.667H18.9167C19.1079 31.6089 19.6189 32.4558 20.3631 33.064C21.1073 33.6723 22.0389 34.0045 23 34.0045C23.9611 34.0045 24.8927 33.6723 25.6369 33.064C26.381 32.4558 26.8921 31.6089 27.0833 30.667H27.7817C28.424 30.6671 29.0576 30.5186 29.6331 30.2332C30.2086 29.9479 30.7103 29.5333 31.099 29.0219C31.4877 28.5106 31.753 27.9162 31.874 27.2854C31.995 26.6546 31.9685 26.0043 31.7966 25.3854H31.7958ZM23 32.3337C22.4848 32.3316 21.9828 32.1703 21.5627 31.872C21.1427 31.5736 20.8251 31.1528 20.6533 30.667H25.3467C25.1749 31.1528 24.8573 31.5736 24.4372 31.872C24.0172 32.1703 23.5152 32.3316 23 32.3337ZM29.7717 28.0129C29.5394 28.3209 29.2386 28.5706 28.893 28.742C28.5474 28.9134 28.1666 29.0019 27.7808 29.0004H17.9883C17.614 29.0003 17.2444 28.9162 16.9069 28.7542C16.5695 28.5922 16.2727 28.3565 16.0385 28.0645C15.8042 27.7724 15.6386 27.4315 15.5538 27.0669C15.469 26.7023 15.4671 26.3233 15.5483 25.9579L16.7733 20.4445C17.0686 19.1164 17.7994 17.925 18.8495 17.0599C19.8997 16.1948 21.2088 15.7055 22.569 15.6699C23.9291 15.6343 25.2621 16.0543 26.3561 16.8633C27.4501 17.6722 28.2422 18.8237 28.6067 20.1345L30.19 25.8312C30.2946 26.2023 30.3113 26.5928 30.2386 26.9715C30.166 27.3502 30.0061 27.7068 29.7717 28.0129Z" fill="#C98848"/>
<rect x="23" y="14" width="9" height="9" rx="4.5" fill="#FE3A30"/>
</g>
<defs>
<filter id="filter0_b_21_13359" x="-4" y="-4" width="54" height="54" filterUnits="userSpaceOnUse" color-interpolation-filters="sRGB">
<feFlood flood-opacity="0" result="BackgroundImageFix"/>
<feGaussianBlur in="BackgroundImageFix" stdDeviation="2"/>
<feComposite in2="SourceAlpha" operator="in" result="effect1_backgroundBlur_21_13359"/>
<feBlend mode="normal" in="SourceGraphic" in2="effect1_backgroundBlur_21_13359" result="shape"/>
</filter>
<clipPath id="clip0_21_13359">
<rect width="20" height="20" fill="white" transform="translate(13 14)"/>
</clipPath>
</defs>
</svg>
