<svg width="25" height="24" viewBox="0 0 25 24" fill="none" xmlns="http://www.w3.org/2000/svg">
<path d="M24.7872 18.9545C24.7872 19.2614 24.7306 19.6619 24.6174 20.1562C24.5042 20.6506 24.3854 21.0398 24.2609 21.3239C24.0233 21.892 23.3329 22.4943 22.1899 23.1307C21.1261 23.7102 20.0736 24 19.0324 24C18.7269 24 18.4298 23.9801 18.1412 23.9403C17.8526 23.9006 17.5272 23.8295 17.1651 23.7273C16.8029 23.625 16.5342 23.5426 16.3587 23.4801C16.1833 23.4176 15.8693 23.3011 15.4166 23.1307C14.9639 22.9602 14.6866 22.858 14.5848 22.8239C13.4757 22.4261 12.4855 21.9545 11.614 21.4091C10.1655 20.5114 8.66876 19.2869 7.12397 17.7358C5.57918 16.1847 4.35976 14.6818 3.46571 13.2273C2.92249 12.3523 2.45283 11.358 2.05673 10.2443C2.02278 10.142 1.92092 9.86364 1.75117 9.40909C1.58141 8.95455 1.46541 8.6392 1.40317 8.46307C1.34092 8.28693 1.25887 8.01705 1.15702 7.65341C1.05516 7.28977 0.984431 6.96307 0.944821 6.6733C0.905211 6.38352 0.885406 6.08523 0.885406 5.77841C0.885406 4.73295 1.17399 3.67614 1.75117 2.60795C2.38493 1.46023 2.98473 0.767045 3.55059 0.528409C3.83352 0.403409 4.22113 0.284091 4.71342 0.170455C5.20572 0.0568182 5.60465 0 5.91021 0C6.06865 0 6.18748 0.0170455 6.2667 0.0511364C6.47041 0.119318 6.77031 0.551136 7.16641 1.34659C7.2909 1.5625 7.46066 1.86932 7.67568 2.26705C7.89071 2.66477 8.08876 3.02557 8.26983 3.34943C8.45091 3.6733 8.62632 3.97727 8.79608 4.26136C8.83003 4.30682 8.92905 4.44886 9.09315 4.6875C9.25725 4.92614 9.37891 5.12784 9.45813 5.29261C9.53735 5.45739 9.57696 5.61932 9.57696 5.77841C9.57696 6.00568 9.41569 6.28977 9.09315 6.63068C8.77061 6.97159 8.41978 7.28409 8.04066 7.56818C7.66154 7.85227 7.31071 8.15341 6.98817 8.47159C6.66563 8.78977 6.50436 9.05114 6.50436 9.25568C6.50436 9.35795 6.53265 9.4858 6.58924 9.6392C6.64582 9.79261 6.69392 9.90909 6.73353 9.98864C6.77314 10.0682 6.85236 10.2045 6.97119 10.3977C7.09002 10.5909 7.15509 10.6989 7.16641 10.7216C8.02651 12.2784 9.0111 13.6136 10.1202 14.7273C11.2293 15.8409 12.559 16.8295 14.1095 17.6932C14.1321 17.7045 14.2396 17.7699 14.432 17.8892C14.6244 18.0085 14.7602 18.0881 14.8394 18.1278C14.9186 18.1676 15.0346 18.2159 15.1874 18.2727C15.3402 18.3295 15.4675 18.358 15.5694 18.358C15.7731 18.358 16.0334 18.196 16.3503 17.8722C16.6671 17.5483 16.967 17.196 17.25 16.8153C17.5329 16.4347 17.8441 16.0824 18.1836 15.7585C18.5231 15.4347 18.8061 15.2727 19.0324 15.2727C19.1909 15.2727 19.3521 15.3125 19.5162 15.392C19.6803 15.4716 19.8812 15.5938 20.1189 15.7585C20.3565 15.9233 20.498 16.0227 20.5433 16.0568C20.8262 16.2273 21.1289 16.4034 21.4515 16.5852C21.774 16.767 22.1333 16.9659 22.5294 17.1818C22.9255 17.3977 23.2311 17.5682 23.4461 17.6932C24.2383 18.0909 24.6683 18.392 24.7362 18.5966C24.7702 18.6761 24.7872 18.7955 24.7872 18.9545Z" fill="white"/>
</svg>
