<svg width="25" height="25" viewBox="0 0 25 25" fill="none" xmlns="http://www.w3.org/2000/svg">
<g clip-path="url(#clip0_66_10075)">
<path d="M24.6947 23.2219L18.477 17.0042C20.1714 14.9319 21.0045 12.2876 20.8039 9.61829C20.6033 6.94899 19.3845 4.45889 17.3995 2.66304C15.4144 0.8672 12.8151 -0.0969855 10.1391 -0.0300773C7.46311 0.0368308 4.91521 1.12971 3.02241 3.02252C1.12961 4.91532 0.036724 7.46322 -0.0301841 10.1392C-0.0970923 12.8152 0.867093 15.4145 2.66294 17.3996C4.45878 19.3846 6.94888 20.6034 9.61819 20.804C12.2875 21.0046 14.9318 20.1715 17.0041 18.4771L23.2218 24.6948C23.4182 24.8845 23.6814 24.9895 23.9545 24.9872C24.2276 24.9848 24.4889 24.8752 24.682 24.6821C24.8751 24.489 24.9847 24.2277 24.9871 23.9546C24.9894 23.6815 24.8844 23.4183 24.6947 23.2219ZM10.4166 18.75C8.76838 18.75 7.15722 18.2613 5.78681 17.3456C4.4164 16.4299 3.3483 15.1284 2.71757 13.6057C2.08683 12.083 1.92181 10.4074 2.24335 8.79092C2.56489 7.17441 3.35857 5.68955 4.524 4.52411C5.68944 3.35867 7.1743 2.565 8.79081 2.24346C10.4073 1.92191 12.0829 2.08694 13.6056 2.71767C15.1283 3.3484 16.4298 4.41651 17.3455 5.78692C18.2612 7.15733 18.7499 8.76849 18.7499 10.4167C18.7474 12.626 17.8686 14.7442 16.3064 16.3065C14.7441 17.8687 12.6259 18.7475 10.4166 18.75Z" fill="white"/>
</g>
<defs>
<clipPath id="clip0_66_10075">
<rect width="25" height="25" fill="white"/>
</clipPath>
</defs>
</svg>
