
<svg width="18" height="19" viewBox="0 0 18 19" fill="none" xmlns="http://www.w3.org/2000/svg">
<path d="M12.5005 12H11.7105L11.4305 11.73C12.0554 11.0039 12.5122 10.1487 12.768 9.22559C13.0239 8.30243 13.0725 7.33413 12.9105 6.38998C12.4405 3.60998 10.1205 1.38997 7.32046 1.04997C6.33608 0.925441 5.33625 1.02775 4.39749 1.34906C3.45872 1.67038 2.60591 2.20219 1.90429 2.90381C1.20268 3.60542 0.670869 4.45824 0.349552 5.397C0.0282347 6.33576 -0.0740712 7.33559 0.0504631 8.31997C0.390463 11.12 2.61046 13.44 5.39046 13.91C6.33462 14.072 7.30292 14.0234 8.22608 13.7675C9.14924 13.5117 10.0044 13.0549 10.7305 12.43L11.0005 12.71V13.5L15.2505 17.75C15.6605 18.16 16.3305 18.16 16.7405 17.75C17.1505 17.34 17.1505 16.67 16.7405 16.26L12.5005 12ZM6.50046 12C4.01046 12 2.00046 9.98997 2.00046 7.49997C2.00046 5.00997 4.01046 2.99997 6.50046 2.99997C8.99046 2.99997 11.0005 5.00997 11.0005 7.49997C11.0005 9.98997 8.99046 12 6.50046 12Z" fill="#9CA2AA"/>
</svg>
