
<svg width="26" height="26" viewBox="0 0 26 26" fill="none" xmlns="http://www.w3.org/2000/svg">
<circle cx="13" cy="13" r="13" fill="#9B85EA"/>
<path d="M8.5 11.875H11.875V13H8.5V11.875ZM8.5 7.375H15.25V8.5H8.5V7.375ZM8.5 9.625H15.25V10.75H8.5V9.625ZM8.5 17.5H11.875V18.625H8.5V17.5ZM19.1875 18.0625H15.8125C15.3649 18.0625 14.9357 18.2403 14.6193 18.5568C14.3028 18.8732 14.125 19.3024 14.125 19.75V20.875H15.25V19.75C15.25 19.6008 15.3093 19.4577 15.4148 19.3523C15.5202 19.2468 15.6633 19.1875 15.8125 19.1875H19.1875C19.3367 19.1875 19.4798 19.2468 19.5852 19.3523C19.6907 19.4577 19.75 19.6008 19.75 19.75V20.875H20.875V19.75C20.875 19.3024 20.6972 18.8732 20.3807 18.5568C20.0643 18.2403 19.6351 18.0625 19.1875 18.0625ZM17.5 17.5C17.945 17.5 18.38 17.368 18.75 17.1208C19.12 16.8736 19.4084 16.5222 19.5787 16.111C19.749 15.6999 19.7936 15.2475 19.7068 14.811C19.62 14.3746 19.4057 13.9737 19.091 13.659C18.7763 13.3443 18.3754 13.13 17.939 13.0432C17.5025 12.9564 17.0501 13.001 16.639 13.1713C16.2278 13.3416 15.8764 13.63 15.6292 14C15.382 14.37 15.25 14.805 15.25 15.25C15.25 15.8467 15.4871 16.419 15.909 16.841C16.331 17.2629 16.9033 17.5 17.5 17.5ZM17.5 14.125C17.7225 14.125 17.94 14.191 18.125 14.3146C18.31 14.4382 18.4542 14.6139 18.5394 14.8195C18.6245 15.025 18.6468 15.2512 18.6034 15.4695C18.56 15.6877 18.4528 15.8882 18.2955 16.0455C18.1382 16.2028 17.9377 16.31 17.7195 16.3534C17.5012 16.3968 17.275 16.3745 17.0695 16.2894C16.8639 16.2042 16.6882 16.06 16.5646 15.875C16.441 15.69 16.375 15.4725 16.375 15.25C16.375 14.9516 16.4935 14.6655 16.7045 14.4545C16.9155 14.2435 17.2016 14.125 17.5 14.125Z" fill="white"/>
<path d="M11.875 20.875H7.375C7.07672 20.8747 6.79075 20.7561 6.57983 20.5452C6.36892 20.3343 6.2503 20.0483 6.25 19.75V6.25C6.2503 5.95172 6.36892 5.66575 6.57983 5.45483C6.79075 5.24392 7.07672 5.1253 7.375 5.125H16.375C16.6733 5.1253 16.9593 5.24392 17.1702 5.45483C17.3811 5.66575 17.4997 5.95172 17.5 6.25V11.875H16.375V6.25H7.375V19.75H11.875V20.875Z" fill="white"/>
</svg>
