
<svg width="100" height="100" viewBox="0 0 100 100" fill="none" xmlns="http://www.w3.org/2000/svg">
<circle opacity="0.1" cx="50" cy="50" r="50" fill="#F94416"/>
<circle opacity="0.4" cx="50.2762" cy="50.2762" r="44.6512" fill="#F94416"/>
<circle opacity="0.5" cx="49.6948" cy="49.6948" r="39.0698" fill="#F94416"/>
<path d="M37.8667 67.25L50.1667 54.95L62.4667 67.25L67.25 62.4667L54.95 50.1667L67.25 37.8667L62.4667 33.0833L50.1667 45.3833L37.8667 33.0833L33.0833 37.8667L45.3833 50.1667L33.0833 62.4667L37.8667 67.25ZM50.1667 84.3333C45.4403 84.3333 40.9986 83.4359 36.8417 81.641C32.6847 79.8461 29.0688 77.4123 25.9938 74.3396C22.9188 71.2646 20.4849 67.6486 18.6923 63.4917C16.8997 59.3347 16.0023 54.8931 16 50.1667C16 45.4403 16.8974 40.9986 18.6923 36.8417C20.4872 32.6847 22.921 29.0688 25.9938 25.9938C29.0688 22.9188 32.6847 20.4849 36.8417 18.6923C40.9986 16.8997 45.4403 16.0023 50.1667 16C54.8931 16 59.3347 16.8974 63.4917 18.6923C67.6486 20.4872 71.2646 22.921 74.3396 25.9938C77.4146 29.0688 79.8495 32.6847 81.6444 36.8417C83.4393 40.9986 84.3356 45.4403 84.3333 50.1667C84.3333 54.8931 83.4359 59.3347 81.641 63.4917C79.8461 67.6486 77.4123 71.2646 74.3396 74.3396C71.2646 77.4146 67.6486 79.8495 63.4917 81.6444C59.3347 83.4393 54.8931 84.3356 50.1667 84.3333Z" fill="#F94416"/>
<path d="M71 38.6387L63.3613 31L50 44.3612L36.6387 31L29 38.6387L42.3612 52L29 65.3613L36.6387 73L50 59.6388L63.3613 73L71 65.3613L57.6388 52L71 38.6387Z" fill="white"/>
</svg>
