<svg width="28" height="30" viewBox="0 0 28 30" fill="none" xmlns="http://www.w3.org/2000/svg">
<path d="M3.88889 16.5556V4.11111C3.88889 3.28599 4.19325 2.49467 4.73502 1.91122C5.2768 1.32778 6.0116 1 6.77778 1H24.1111C24.8773 1 25.6121 1.32778 26.1539 1.91122C26.6956 2.49467 27 3.28599 27 4.11111V24.3333C27 25.8889 26.1333 29 22.6667 29M22.6667 29H5.33333C3.88889 29 1 28.0667 1 24.3333V21.2222H18.3333V24.3333C18.3333 28.0667 21.2222 29 22.6667 29ZM9.66667 7.22222H21.2222M9.66667 13.4444H15.4444" stroke="white" stroke-width="2" stroke-linecap="round" stroke-linejoin="round"/>
</svg>
