
<svg width="100" height="100" viewBox="0 0 100 100" fill="none" xmlns="http://www.w3.org/2000/svg">
<circle opacity="0.4" cx="50.2327" cy="49.7677" r="44.6512" fill="#3DC13C"/>
<circle opacity="0.1" cx="50" cy="50" r="50" fill="#3DC13C"/>
<circle opacity="0.5" cx="50.2324" cy="49.7675" r="39.0698" fill="#3DC13C"/>
<circle cx="50.2325" cy="49.7676" r="32.5581" fill="white"/>
<path d="M50.2325 17.2095C58.8674 17.2095 67.1487 20.6397 73.2545 26.7455C79.3604 32.8514 82.7906 41.1327 82.7906 49.7676C82.7906 58.4026 79.3604 66.6839 73.2545 72.7897C67.1487 78.8955 58.8674 82.3257 50.2325 82.3257C41.5975 82.3257 33.3162 78.8955 27.2104 72.7897C21.1045 66.6839 17.6743 58.4026 17.6743 49.7676C17.6743 41.1327 21.1045 32.8514 27.2104 26.7455C33.3162 20.6397 41.5975 17.2095 50.2325 17.2095V17.2095ZM46.1766 56.1909L38.9441 48.9537C38.6848 48.6944 38.377 48.4887 38.0382 48.3484C37.6994 48.208 37.3363 48.1358 36.9697 48.1358C36.603 48.1358 36.2399 48.208 35.9011 48.3484C35.5623 48.4887 35.2545 48.6944 34.9952 48.9537C34.4716 49.4773 34.1774 50.1875 34.1774 50.9281C34.1774 51.6686 34.4716 52.3788 34.9952 52.9025L44.2045 62.1118C44.4631 62.3724 44.7707 62.5792 45.1096 62.7203C45.4484 62.8615 45.8119 62.9342 46.179 62.9342C46.5461 62.9342 46.9095 62.8615 47.2484 62.7203C47.5873 62.5792 47.8948 62.3724 48.1534 62.1118L67.2232 43.0374C67.4859 42.7792 67.6949 42.4715 67.8382 42.1321C67.9814 41.7927 68.056 41.4283 68.0578 41.0599C68.0595 40.6915 67.9882 40.3265 67.8482 39.9857C67.7081 39.645 67.5019 39.3354 67.2416 39.0748C66.9812 38.8141 66.6719 38.6076 66.3313 38.4671C65.9908 38.3267 65.6258 38.255 65.2574 38.2563C64.889 38.2575 64.5245 38.3317 64.185 38.4746C63.8454 38.6174 63.5375 38.8261 63.279 39.0885L46.1766 56.1909Z" fill="#3DC13C"/>
</svg>
