<svg width="160" height="149" viewBox="0 0 160 149" fill="none" xmlns="http://www.w3.org/2000/svg">
<g clip-path="url(#clip0_178_11564)">
<g filter="url(#filter0_i_178_11564)">
<path d="M154.367 74.4981C156.838 71.8185 158.569 68.6178 159.411 65.1739C160.253 61.7299 160.18 58.1466 159.199 54.7349C158.217 51.3232 156.356 48.1861 153.778 45.5957C151.199 43.0053 147.981 41.0398 144.402 39.8699C145.104 36.3985 144.885 32.8203 143.765 29.4455C142.645 26.0708 140.657 23.0015 137.975 20.504C135.293 18.0065 131.997 16.1562 128.373 15.1136C124.749 14.071 120.906 13.8676 117.179 14.521C115.923 11.1875 113.813 8.18981 111.031 5.78808C108.25 3.38635 104.881 1.65322 101.217 0.739164C97.5524 -0.174895 93.7041 -0.242252 90.0057 0.542939C86.3073 1.32813 82.8706 2.94214 79.9939 5.24483C77.1164 2.94372 73.6795 1.33117 69.9813 0.547063C66.2831 -0.237044 62.4353 -0.169022 58.7717 0.745223C55.1081 1.65947 51.7393 3.39233 48.9577 5.79347C46.1761 8.19462 44.0656 11.1915 42.8092 14.5242C39.0818 13.8718 35.2398 14.0762 31.6164 15.1195C27.993 16.1628 24.6977 18.0136 22.0162 20.5113C19.3348 23.0091 17.3482 26.0783 16.2288 29.4529C15.1093 32.8274 14.8909 36.4054 15.5924 39.8763C12.0137 41.0463 8.79552 43.0117 6.21711 45.6021C3.63869 48.1925 1.7779 51.3296 0.796156 54.7414C-0.185585 58.1531 -0.258638 61.7364 0.583356 65.1803C1.42535 68.6243 3.15698 71.8249 5.62797 74.5046C3.15623 77.1842 1.42406 80.385 0.581832 83.8294C-0.260401 87.2737 -0.187284 90.8574 0.794886 94.2694C1.77706 97.6814 3.63857 100.819 6.21787 103.409C8.79717 105.999 12.0163 107.964 15.5959 109.133C14.8938 112.604 15.112 116.182 16.2315 119.557C17.3511 122.932 19.3382 126.001 22.0203 128.498C24.7024 130.996 27.9985 132.846 31.6225 133.888C35.2466 134.93 39.0889 135.133 42.8162 134.478C44.0725 137.811 46.183 140.808 48.9646 143.209C51.7463 145.61 55.115 147.343 58.7786 148.257C62.4422 149.172 66.29 149.24 69.9882 148.456C73.6864 147.672 77.1234 146.059 80.0009 143.758C82.8783 146.06 86.3155 147.673 90.0141 148.457C93.7127 149.241 97.5609 149.173 101.225 148.259C104.889 147.344 108.258 145.61 111.039 143.209C113.82 140.807 115.93 137.809 117.186 134.475C120.913 135.129 124.755 134.926 128.379 133.883C132.003 132.84 135.299 130.99 137.981 128.492C140.663 125.995 142.65 122.925 143.77 119.551C144.889 116.176 145.108 112.598 144.406 109.126C147.985 107.957 151.203 105.991 153.782 103.401C156.36 100.81 158.221 97.673 159.203 94.261C160.184 90.8491 160.257 87.2656 159.414 83.8217C158.571 80.3777 156.839 77.1773 154.367 74.4981Z" fill="#6A947E"/>
</g>
<path d="M152.529 72.8034L150.966 74.4986L152.529 76.1934C154.723 78.5706 156.246 81.3949 156.985 84.4159C157.724 87.4359 157.661 90.5763 156.8 93.5699C155.939 96.5646 154.3 99.3361 152.01 101.637C149.719 103.939 146.844 105.699 143.629 106.75L141.514 107.441L141.955 109.622C142.571 112.664 142.38 115.8 141.397 118.763C140.414 121.728 138.662 124.442 136.277 126.663C133.892 128.885 130.945 130.543 127.688 131.48C124.43 132.418 120.972 132.601 117.617 132.013L115.576 131.655L114.846 133.594C113.743 136.524 111.881 139.178 109.405 141.316C106.928 143.455 103.914 145.011 100.619 145.833C97.3242 146.656 93.8604 146.717 90.5327 146.011C87.2052 145.306 84.1274 143.857 81.5626 141.806L80.0011 140.557L78.4395 141.805C75.8745 143.857 72.7969 145.305 69.4697 146.01C66.1423 146.715 62.6788 146.654 59.3839 145.832C56.0892 145.01 53.0752 143.455 50.5982 141.317C48.1221 139.179 46.2598 136.526 45.1555 133.597L44.4246 131.658L42.3839 132.016C39.0294 132.605 35.5711 132.422 32.3135 131.485C29.0561 130.549 26.1098 128.89 23.7239 126.669C21.339 124.448 19.5877 121.734 18.6043 118.77C17.6214 115.807 17.4309 112.671 18.0463 109.628L18.4875 107.447L16.372 106.756C13.1562 105.706 10.2813 103.946 7.98936 101.645C5.69827 99.3441 4.0594 96.5726 3.19733 93.5778C2.33557 90.5841 2.27173 87.4435 3.01028 84.4232C3.74906 81.4019 5.27242 78.5772 7.46557 76.1996L9.02889 74.5049L7.46585 72.8098C5.27333 70.4321 3.75041 67.6076 3.01183 64.5866C2.27347 61.5665 2.33726 58.4263 3.19867 55.4327C4.06037 52.4381 5.69863 49.6668 7.98897 47.3658L6.21711 45.6021L7.98897 47.3658C10.2802 45.0639 13.1542 43.3036 16.3693 42.2526L18.4835 41.5614L18.0429 39.3811C17.428 36.3388 17.6188 33.2029 18.6016 30.24C19.5848 27.276 21.3358 24.5617 23.7202 22.3407C26.1055 20.1188 29.0512 18.4597 32.3082 17.5219C35.5654 16.584 39.0234 16.3996 42.3782 16.9868L44.418 17.3438L45.1485 15.4061C46.2529 12.4766 48.1151 9.82338 50.5913 7.68593C53.0683 5.54775 56.0823 3.99302 59.377 3.17084C62.6719 2.3486 66.1354 2.28721 69.4628 2.9927C72.79 3.69814 75.8676 5.14611 78.4326 7.1973L79.9947 8.44653L81.5563 7.19654C84.1203 5.14404 87.1976 3.69482 90.5249 2.98843C93.8523 2.282 97.3162 2.34278 100.611 3.16483C103.906 3.98681 106.921 5.54173 109.398 7.68035C111.874 9.81824 113.736 12.472 114.839 15.4021L115.569 17.3412L117.61 16.9835C120.965 16.3953 124.424 16.5789 127.681 17.5161C130.939 18.4533 133.885 20.112 136.271 22.3337C138.656 24.5546 140.408 27.2688 141.392 30.233C142.375 33.1961 142.566 36.3323 141.952 39.3749L141.512 41.555L143.626 42.2461C146.841 43.2972 149.715 45.0574 152.006 47.3593C154.296 49.6603 155.934 52.4317 156.796 55.4262C157.658 58.4198 157.721 61.5601 156.983 64.5801C156.244 67.6011 154.721 70.4257 152.529 72.8034Z" stroke="white" stroke-width="5"/>
<path d="M65.6369 102.937L43.4059 82.2468C42.5622 81.4598 42.0883 80.3932 42.0883 79.2812C42.0883 78.1692 42.5622 77.1026 43.4059 76.3156L46.1067 73.7972C46.9518 73.0115 48.0971 72.5702 49.2913 72.5702C50.4854 72.5702 51.6308 73.0115 52.4758 73.7972L68.636 88.8367L106.694 51.1734C107.513 50.3642 108.644 49.8907 109.837 49.8568C111.031 49.8229 112.19 50.2314 113.06 50.9926L115.834 53.4303C116.704 54.193 117.213 55.2462 117.249 56.3584C117.286 57.4706 116.846 58.5508 116.028 59.3615L72.1135 102.843C71.7001 103.253 71.2022 103.582 70.6495 103.81C70.0969 104.037 69.5007 104.159 68.8965 104.168C68.2923 104.177 67.6924 104.072 67.1324 103.861C66.5725 103.649 66.0639 103.335 65.6369 102.937Z" fill="white"/>
</g>
<defs>
<filter id="filter0_i_178_11564" x="0" y="0" width="159.996" height="152.999" filterUnits="userSpaceOnUse" color-interpolation-filters="sRGB">
<feFlood flood-opacity="0" result="BackgroundImageFix"/>
<feBlend mode="normal" in="SourceGraphic" in2="BackgroundImageFix" result="shape"/>
<feColorMatrix in="SourceAlpha" type="matrix" values="0 0 0 0 0 0 0 0 0 0 0 0 0 0 0 0 0 0 127 0" result="hardAlpha"/>
<feOffset dy="4"/>
<feGaussianBlur stdDeviation="9.5"/>
<feComposite in2="hardAlpha" operator="arithmetic" k2="-1" k3="1"/>
<feColorMatrix type="matrix" values="0 0 0 0 0 0 0 0 0 0 0 0 0 0 0 0 0 0 0.25 0"/>
<feBlend mode="normal" in2="shape" result="effect1_innerShadow_178_11564"/>
</filter>
<clipPath id="clip0_178_11564">
<rect width="160" height="149" fill="white"/>
</clipPath>
</defs>
</svg>
