<svg width="23" height="24" viewBox="0 0 23 24" fill="none" xmlns="http://www.w3.org/2000/svg">
<path d="M18.6031 20.0925C17.727 19.7475 16.4706 19.6275 15.6692 19.4325C15.2073 19.32 14.535 19.035 14.3109 18.7425C14.0867 18.4425 14.2226 15.675 14.2226 15.675C14.2226 15.675 14.6369 14.955 14.861 14.325C15.0851 13.695 15.3296 11.97 15.3296 11.97C15.3296 11.97 15.7914 11.97 15.9544 11.0775C16.131 10.1025 16.4027 9.6975 16.3687 8.97C16.3347 8.295 16.0155 8.2575 15.9816 8.2575C15.9816 8.2575 16.3144 7.2375 16.3619 5.0775C16.4162 2.52 14.6437 3.71335e-09 11.3158 2.84276e-09C7.98797 1.97216e-09 6.22218 2.5125 6.26972 5.07C6.31047 7.2225 6.65005 8.25 6.65005 8.25C6.61609 8.25 6.29689 8.2875 6.26293 8.9625C6.22897 9.69 6.50743 10.08 6.67721 11.055C6.84021 11.9475 7.30203 11.955 7.30203 11.955C7.30203 11.955 7.54653 13.6875 7.77065 14.3175C7.99477 14.955 8.40905 15.6675 8.40905 15.6675C8.40905 15.6675 8.54488 18.435 8.32076 18.735C8.09664 19.035 7.42428 19.3125 6.96246 19.425C6.15427 19.62 4.90463 19.7475 4.02853 20.0925C3.15242 20.4375 0.449402 21.6 0.449402 24L11.3158 24L22.1822 24C22.1822 21.6 19.4792 20.4375 18.6031 20.0925Z" fill="white"/>
</svg>
