<svg width="85" height="58" viewBox="0 0 85 58" fill="none" xmlns="http://www.w3.org/2000/svg">
<path d="M77 0H8C3.58172 0 0 3.58172 0 8V50C0 54.4183 3.58172 58 8 58H77C81.4183 58 85 54.4183 85 50V8C85 3.58172 81.4183 0 77 0Z" fill="#4C6FFF"/>
<path d="M61.8332 47.8843H59.8081L61.0748 40.1401H63.0998L61.8332 47.8843Z" fill="white"/>
<path d="M69.1745 40.3297C68.7751 40.173 68.1415 40 67.3581 40C65.3582 40 63.9499 41.0545 63.9412 42.5621C63.9246 43.6744 64.9495 44.2921 65.7161 44.663C66.4996 45.042 66.766 45.2894 66.766 45.6272C66.758 46.146 66.1328 46.3851 65.5498 46.3851C64.7412 46.3851 64.308 46.2618 63.6496 45.9732L63.383 45.8494L63.0996 47.5878C63.5745 47.8018 64.4496 47.9917 65.3582 48C67.4831 48 68.8666 46.9618 68.883 45.3553C68.891 44.4737 68.3498 43.7982 67.183 43.2462C66.4747 42.8919 66.0409 42.6529 66.0409 42.2904C66.0492 41.9608 66.4078 41.6232 67.2074 41.6232C67.8658 41.6067 68.3495 41.7632 68.716 41.9197L68.8991 42.002L69.1745 40.3297Z" fill="white"/>
<path d="M71.8667 45.1409C72.0334 44.696 72.6752 42.9741 72.6752 42.9741C72.6668 42.9906 72.8417 42.521 72.9417 42.2327L73.0832 42.9C73.0832 42.9 73.4667 44.7537 73.55 45.1409C73.2335 45.1409 72.2667 45.1409 71.8667 45.1409ZM74.3665 40.1401H72.8C72.3169 40.1401 71.9499 40.2801 71.7415 40.7827L68.7334 47.8842H70.8583C70.8583 47.8842 71.2082 46.9284 71.2834 46.7226C71.5165 46.7226 73.5836 46.7226 73.8835 46.7226C73.9417 46.9945 74.1252 47.8842 74.1252 47.8842H76.0003L74.3665 40.1401Z" fill="white"/>
<path d="M58.1167 40.1401L56.1334 45.4209L55.9166 44.3499C55.55 43.1141 54.4 41.7715 53.1167 41.1038L54.9333 47.8761H57.0749L60.2581 40.1401H58.1167Z" fill="white"/>
<path d="M54.2916 40.1401H51.0333L51 40.2966C53.5417 40.9393 55.225 42.4883 55.9166 44.3503L55.2083 40.7911C55.0917 40.2965 54.7333 40.1565 54.2916 40.1401Z" fill="#F3F5F8"/>
<path d="M10.7378 10.3636V12.7109C10.7378 13.2045 10.3969 13.5597 9.84295 13.5597C9.29075 13.5597 8.94806 13.2045 8.94806 12.7109V10.3636H8.39941V12.7553C8.39941 13.5188 8.97115 14.0604 9.84295 14.0604C10.7147 14.0604 11.2883 13.5188 11.2883 12.7553V10.3636H10.7378ZM12.5742 12.3807C12.5742 11.9457 12.8405 11.6971 13.2099 11.6971C13.5703 11.6971 13.7887 11.9332 13.7887 12.3292V14H14.3196V12.2653C14.3196 11.5906 13.9485 11.2372 13.391 11.2372C12.9808 11.2372 12.7127 11.4272 12.5866 11.7166H12.5529V11.2727H12.0433V14H12.5742V12.3807ZM15.0316 14H15.5625V11.2727H15.0316V14ZM15.2997 10.8519C15.4826 10.8519 15.6353 10.7099 15.6353 10.5359C15.6353 10.3619 15.4826 10.218 15.2997 10.218C15.115 10.218 14.9641 10.3619 14.9641 10.5359C14.9641 10.7099 15.115 10.8519 15.2997 10.8519ZM17.5498 11.2727H16.9905V10.6193H16.4596V11.2727H16.0601V11.6989H16.4596V13.3093C16.4578 13.8047 16.836 14.0444 17.255 14.0355C17.4237 14.0337 17.5374 14.0018 17.5995 13.9787L17.5036 13.5401C17.4681 13.5472 17.4024 13.5632 17.3172 13.5632C17.145 13.5632 16.9905 13.5064 16.9905 13.1992V11.6989H17.5498V11.2727ZM19.2832 14.055C19.878 14.055 20.2988 13.7621 20.4196 13.3182L19.9171 13.2276C19.8212 13.4851 19.5904 13.6165 19.2885 13.6165C18.834 13.6165 18.5286 13.3217 18.5144 12.7962H20.4533V12.608C20.4533 11.6225 19.8638 11.2372 19.2459 11.2372C18.486 11.2372 17.9853 11.8161 17.9853 12.6541C17.9853 13.5011 18.4789 14.055 19.2832 14.055ZM18.5161 12.3984C18.5375 12.0114 18.818 11.6758 19.2495 11.6758C19.6614 11.6758 19.9313 11.9812 19.933 12.3984H18.5161ZM22.0633 14.0533C22.5604 14.0533 22.7558 13.7496 22.8516 13.5756H22.896V14H23.4145V10.3636H22.8836V11.7148H22.8516C22.7558 11.5462 22.5747 11.2372 22.0668 11.2372C21.4081 11.2372 20.9234 11.7575 20.9234 12.6417C20.9234 13.5241 21.401 14.0533 22.0633 14.0533ZM22.1805 13.6005C21.7064 13.6005 21.4596 13.1832 21.4596 12.6364C21.4596 12.0948 21.7011 11.6882 22.1805 11.6882C22.6439 11.6882 22.8925 12.0664 22.8925 12.6364C22.8925 13.2099 22.6386 13.6005 22.1805 13.6005ZM25.5381 14H26.9319C27.7771 14 28.1588 13.5792 28.1588 13.0217C28.1588 12.4588 27.7646 12.141 27.4042 12.1214V12.0859C27.738 12.0007 28.0168 11.7734 28.0168 11.3189C28.0168 10.7809 27.6439 10.3636 26.8698 10.3636H25.5381V14ZM26.0867 13.5295V12.3647H26.8982C27.3385 12.3647 27.6137 12.6488 27.6137 12.995C27.6137 13.3004 27.406 13.5295 26.8786 13.5295H26.0867ZM26.0867 11.9368V10.8306H26.836C27.271 10.8306 27.4788 11.0597 27.4788 11.3615C27.4788 11.7131 27.1911 11.9368 26.8218 11.9368H26.0867ZM29.7879 14.0533C30.2851 14.0533 30.4804 13.7496 30.5762 13.5756H30.6206V14H31.1391V11.2727H30.6082V11.7148H30.5762C30.4804 11.5462 30.2993 11.2372 29.7914 11.2372C29.1327 11.2372 28.648 11.7575 28.648 12.6417C28.648 13.5241 29.1256 14.0533 29.7879 14.0533ZM29.9051 13.6005C29.431 13.6005 29.1842 13.1832 29.1842 12.6364C29.1842 12.0948 29.4257 11.6882 29.9051 11.6882C30.3685 11.6882 30.6171 12.0664 30.6171 12.6364C30.6171 13.2099 30.3632 13.6005 29.9051 13.6005ZM32.4277 12.3807C32.4277 11.9457 32.6941 11.6971 33.0634 11.6971C33.4238 11.6971 33.6422 11.9332 33.6422 12.3292V14H34.1731V12.2653C34.1731 11.5906 33.802 11.2372 33.2445 11.2372C32.8343 11.2372 32.5662 11.4272 32.4402 11.7166H32.4064V11.2727H31.8968V14H32.4277V12.3807ZM34.8851 14H35.416V13.0323L35.6806 12.7678L36.6074 14H37.259L36.0801 12.4428L37.1845 11.2727H36.5488L35.4622 12.4268H35.416V10.3636H34.8851V14Z" fill="white"/>
<path d="M74.4455 14.4545H74.7793L74.7811 14.055C75.5322 14 75.9618 13.5703 75.9618 12.995C75.9618 12.3398 75.3777 12.0859 74.916 11.9723L74.7864 11.9386L74.79 10.7987C75.122 10.843 75.3493 11.0277 75.383 11.3189H75.9121C75.8979 10.7773 75.4505 10.3725 74.7917 10.3192L74.7935 9.90909H74.4597L74.4579 10.3228C73.8205 10.3867 73.3535 10.7844 73.3535 11.358C73.3535 11.864 73.7158 12.1605 74.2999 12.3185L74.4526 12.3594L74.4491 13.5685C74.1028 13.5259 73.8347 13.3377 73.8063 12.995H73.2559C73.2896 13.6076 73.7317 14.0018 74.4473 14.055L74.4455 14.4545ZM74.7829 13.5685L74.7864 12.4517C75.1469 12.5511 75.4185 12.6825 75.4185 12.9897C75.4185 13.3004 75.1593 13.5188 74.7829 13.5685ZM74.4544 11.8498C74.1898 11.7717 73.8986 11.6314 73.9004 11.326C73.9004 11.0597 74.1117 10.8519 74.4562 10.8004L74.4544 11.8498Z" fill="white"/>
<path d="M9.23975 47.3608H10.9851V48H11.7077V47.3608H12.1712V46.7447H11.7077V45.7273H11.0064V46.7447H10.0121V46.7163L11.3384 44.3636H10.598L9.23975 46.7553V47.3608ZM12.6266 46.9719C12.6479 47.6183 13.2108 48.0497 14.0098 48.0497C14.8105 48.0497 15.4107 47.6112 15.4107 46.9648C15.4107 46.4801 15.0733 46.0078 14.3081 45.9332V45.9048L15.2846 44.9176V44.3636H12.8095V44.9922H14.34V45.017L13.5339 45.8551V46.3896H13.9263C14.3773 46.3896 14.6099 46.6133 14.6099 46.9134C14.6099 47.2241 14.3631 47.4158 14.0115 47.4158C13.6813 47.4158 13.4221 47.2454 13.4025 46.9719H12.6266ZM17.2928 48.0497C18.1025 48.0497 18.6529 47.5224 18.6511 46.7873C18.6529 46.0913 18.1664 45.5906 17.5112 45.5906C17.1916 45.5906 16.9164 45.7237 16.7885 45.9031H16.7672L16.8613 44.9922H18.4505V44.3636H16.2275L16.0552 46.2812L16.7388 46.4038C16.8507 46.2528 17.0673 46.1587 17.2821 46.1587C17.6479 46.1605 17.9107 46.4251 17.9107 46.8068C17.9107 47.185 17.6532 47.446 17.2928 47.446C16.9874 47.446 16.7406 47.2543 16.7228 46.9719H15.9771C15.9913 47.6005 16.54 48.0497 17.2928 48.0497ZM19.1873 48H21.7797V47.3714H20.2527V47.3466L20.7836 46.8263C21.5311 46.1445 21.7317 45.8036 21.7317 45.3899C21.7317 44.7596 21.2168 44.3139 20.4373 44.3139C19.6738 44.3139 19.15 44.7702 19.1518 45.484H19.8816C19.8798 45.136 20.1 44.9229 20.432 44.9229C20.7516 44.9229 20.9895 45.1218 20.9895 45.4414C20.9895 45.7308 20.812 45.9297 20.4817 46.2475L19.1873 47.446V48Z" fill="white"/>
<path d="M19 20H10C8.89543 20 8 20.8954 8 22V29C8 30.1046 8.89543 31 10 31H19C20.1046 31 21 30.1046 21 29V22C21 20.8954 20.1046 20 19 20Z" fill="#EBF2FA"/>
</svg>
