<svg width="20" height="20" viewBox="0 0 20 20" fill="none" xmlns="http://www.w3.org/2000/svg">
<path d="M8.33333 13.3333V6.66667C8.33333 6.22464 8.50893 5.80072 8.82149 5.48816C9.13405 5.17559 9.55797 5 10 5H17.5V4.16667C17.5 3.25 16.75 2.5 15.8333 2.5H4.16667C3.72464 2.5 3.30072 2.67559 2.98816 2.98816C2.67559 3.30072 2.5 3.72464 2.5 4.16667V15.8333C2.5 16.2754 2.67559 16.6993 2.98816 17.0118C3.30072 17.3244 3.72464 17.5 4.16667 17.5H15.8333C16.75 17.5 17.5 16.75 17.5 15.8333V15H10C9.55797 15 9.13405 14.8244 8.82149 14.5118C8.50893 14.1993 8.33333 13.7754 8.33333 13.3333ZM10.8333 6.66667C10.375 6.66667 10 7.04167 10 7.5V12.5C10 12.9583 10.375 13.3333 10.8333 13.3333H18.3333V6.66667H10.8333ZM13.3333 11.25C12.6417 11.25 12.0833 10.6917 12.0833 10C12.0833 9.30833 12.6417 8.75 13.3333 8.75C14.025 8.75 14.5833 9.30833 14.5833 10C14.5833 10.6917 14.025 11.25 13.3333 11.25Z" fill="white"/>
</svg>
