<svg width="11" height="11" viewBox="0 0 11 11" fill="none" xmlns="http://www.w3.org/2000/svg">
<path d="M10.737 11H8.371C8.217 11 8.091 10.9627 7.993 10.888C7.89967 10.8133 7.825 10.7247 7.769 10.622L5.725 7.052C5.68767 7.15467 5.64567 7.24333 5.599 7.318L3.695 10.622C3.62967 10.7153 3.55267 10.8017 3.464 10.881C3.37533 10.9603 3.261 11 3.121 11H0.909L4.192 5.75L1.035 0.801H3.401C3.555 0.801 3.667 0.822 3.737 0.863999C3.81167 0.901333 3.877 0.966666 3.933 1.06L5.963 4.497C5.98633 4.43633 6.012 4.378 6.04 4.322C6.07267 4.266 6.10767 4.20767 6.145 4.147L7.923 1.095C7.98833 0.992333 8.056 0.917666 8.126 0.871C8.20067 0.824333 8.29167 0.801 8.399 0.801H10.667L7.468 5.652L10.737 11Z" fill="#1E1E1E"/>
</svg>
